<svg width="465" height="536" viewBox="0 0 465 536" fill="none" xmlns="http://www.w3.org/2000/svg">
<g filter="url(#filter0_n_191_74)">
<rect x="19" y="22" width="427" height="491" fill="#2F332E"/>
</g>
<path d="M21.2611 6.48866H74.4139L120.48 12.9772L156.927 10.4816L159.458 2.49562L183.25 6.48866L187.3 13.4764H217.167L204.512 10.4816L200.968 0L241.465 11.2101L258.677 6.98774L281.456 11.2101L77.9574 276.016L21 270L0 276.016L11.1368 265.035L13.1616 249.562L5.56838 231.594L3.54352 218.616L4.55595 207.137L8.60568 216.62V212.128L7.59325 195.158L13.1616 163.713L7.59325 140.753L0 124.781L7.59325 114.299V103.818L4.55595 85.8494L13.1616 61.8914L0 22.4606L21.2611 6.48866Z" fill="#5A5959"/>
<path d="M281.456 11.2101L300.48 12.9772L336.927 10.4816L339.458 2.49562L363.25 6.48866L367.3 13.4764H397.167L384.512 10.4816L380.968 0L421.465 11.2101L438.677 6.98774L461.456 11.2101L453.863 13.4764L456.394 58.3975L457.913 96.331L463.988 102.82L465 130.271L456.394 149.737L462.469 162.715L463.988 176.69H456.394V222.11L463.988 236.086L456.394 237.583V244.571L465 274.019L461.488 262L444 258.929L441.445 258.477L438.677 257.988L421.465 262.21L281.456 11.2101Z" fill="#5A5959"/>
<path d="M281.456 11.2101L421.465 262.21L438.677 257.988L450.207 260.026L461.488 262L453.863 264.476L456.394 309.398L457.913 347.331L463.988 353.82L465 381.271L456.394 400.737L462.469 413.715L463.988 427.69H456.394V473.11L463.988 487.086L456.394 488.583V495.571L465 525.019L456.394 519.03L443.739 527.016H423.996L403.748 530.01L390.586 527.016L362.238 528.014L358.188 523.522L332.877 522.025L319.716 528.014L298.961 525.019L293.393 519.03L257.957 527.016L238.721 528.014L228.597 536L218.472 528.014L200.755 525.019L202.78 520.527L180 527.016L191.137 516.035L193 495.5L247.5 481.5L276.394 309.398L281.456 11.2101Z" fill="#5A5959"/>
<path d="M21 270L77.9574 276.016L281.456 11.2101L276.394 309.398L247.5 481.5L193 495.5L191.137 516.035L180 527L178.188 523.522L152.877 522.025L139.716 528.014L118.961 525.019L113.393 519.03L77.9574 527.016L58.7211 528.014L48.5968 536L38.4725 528.014L20.7549 525.019L22.7798 520.527L0 527.016L11.1368 516.035L13.1616 500.562L5.56838 482.594L3.54352 469.616L4.55595 458.137L8.60568 467.62V463.128L7.59325 446.158L13.1616 414.713L7.59325 391.753L0 375.781L7.59325 365.299V354.818L4.55595 336.849L13.1616 312.891L0 276L21 270Z" fill="#5A5959"/>
<path d="M139.195 436.944C139.195 438.017 138.872 438.869 138.226 439.501C137.594 440.133 136.734 440.529 135.647 440.691V440.779C136.94 440.941 137.917 441.352 138.578 442.013C139.239 442.66 139.57 443.505 139.57 444.548C139.57 445.459 139.342 446.267 138.887 446.972C138.446 447.678 137.777 448.229 136.881 448.625C135.985 449.022 134.868 449.22 133.531 449.22C132.591 449.22 131.724 449.154 130.93 449.022C130.152 448.89 129.454 448.669 128.836 448.361V446.267C129.263 446.487 129.725 446.678 130.225 446.84C130.739 446.987 131.254 447.105 131.768 447.193C132.282 447.266 132.774 447.303 133.244 447.303C134.523 447.303 135.478 447.06 136.11 446.576C136.756 446.076 137.079 445.371 137.079 444.46C137.079 443.534 136.69 442.866 135.911 442.454C135.133 442.028 134.053 441.815 132.671 441.815H130.732V439.875H132.539C133.538 439.875 134.339 439.773 134.942 439.567C135.559 439.346 136.007 439.038 136.286 438.641C136.58 438.244 136.727 437.774 136.727 437.231C136.727 436.511 136.477 435.96 135.977 435.578C135.478 435.181 134.802 434.983 133.95 434.983C133.098 434.983 132.356 435.107 131.724 435.357C131.107 435.592 130.512 435.908 129.938 436.305L128.836 434.696C129.263 434.373 129.74 434.094 130.269 433.859C130.813 433.609 131.4 433.41 132.032 433.263C132.679 433.117 133.384 433.043 134.148 433.043C135.235 433.043 136.154 433.212 136.903 433.55C137.652 433.888 138.218 434.351 138.6 434.938C138.997 435.512 139.195 436.18 139.195 436.944ZM144.555 443.6C144.555 443.777 144.548 444.004 144.533 444.283C144.519 444.563 144.504 444.856 144.489 445.165C144.474 445.459 144.46 445.738 144.445 446.003C144.43 446.252 144.416 446.451 144.401 446.598L149.977 437.12H152.798V449H150.572V442.675C150.572 442.395 150.58 442.05 150.594 441.639C150.609 441.227 150.624 440.831 150.638 440.448C150.653 440.052 150.668 439.751 150.682 439.545L145.15 449H142.307V437.12H144.555V443.6ZM165.425 449H163.001V438.994H159.959C159.812 440.816 159.636 442.381 159.43 443.688C159.225 444.981 158.96 446.032 158.637 446.84C158.328 447.648 157.939 448.243 157.469 448.625C157.013 448.993 156.47 449.176 155.838 449.176C155.617 449.176 155.397 449.154 155.177 449.11C154.956 449.081 154.765 449.029 154.603 448.956V447.171C154.721 447.2 154.839 447.229 154.956 447.259C155.074 447.274 155.191 447.281 155.309 447.281C155.573 447.281 155.816 447.163 156.036 446.928C156.256 446.693 156.455 446.326 156.631 445.826C156.822 445.327 156.991 444.68 157.138 443.887C157.3 443.079 157.439 442.116 157.557 440.999C157.674 439.883 157.777 438.59 157.865 437.12H165.425V449ZM171.008 443.6C171.008 443.777 171 444.004 170.986 444.283C170.971 444.563 170.956 444.856 170.941 445.165C170.927 445.459 170.912 445.738 170.897 446.003C170.883 446.252 170.868 446.451 170.853 446.598L176.429 437.12H179.251V449H177.024V442.675C177.024 442.395 177.032 442.05 177.047 441.639C177.061 441.227 177.076 440.831 177.091 440.448C177.105 440.052 177.12 439.751 177.135 439.545L171.603 449H168.76V437.12H171.008V443.6ZM189.563 437.12H192.186L187.58 442.829L192.583 449H189.828L185.001 442.983V449H182.621V437.12H185.001V442.895L189.563 437.12ZM203.72 440.889L198.364 433.263H200.987L206.232 440.889V433.263H208.547V440.889L213.814 433.263H216.437L211.059 440.867L216.679 449H213.968L208.547 441.022V449H206.232V441.022L200.811 449H198.1L203.72 440.889ZM220.619 443.6C220.619 443.777 220.612 444.004 220.597 444.283C220.582 444.563 220.568 444.856 220.553 445.165C220.538 445.459 220.524 445.738 220.509 446.003C220.494 446.252 220.479 446.451 220.465 446.598L226.041 437.12H228.862V449H226.636V442.675C226.636 442.395 226.643 442.05 226.658 441.639C226.673 441.227 226.687 440.831 226.702 440.448C226.717 440.052 226.731 439.751 226.746 439.545L221.214 449H218.371V437.12H220.619V443.6ZM241.489 449H239.064V438.994H236.023C235.876 440.816 235.7 442.381 235.494 443.688C235.288 444.981 235.024 446.032 234.701 446.84C234.392 447.648 234.003 448.243 233.532 448.625C233.077 448.993 232.533 449.176 231.901 449.176C231.681 449.176 231.461 449.154 231.24 449.11C231.02 449.081 230.829 449.029 230.667 448.956V447.171C230.785 447.2 230.902 447.229 231.02 447.259C231.137 447.274 231.255 447.281 231.373 447.281C231.637 447.281 231.879 447.163 232.1 446.928C232.32 446.693 232.519 446.326 232.695 445.826C232.886 445.327 233.055 444.68 233.202 443.887C233.363 443.079 233.503 442.116 233.621 440.999C233.738 439.883 233.841 438.59 233.929 437.12H241.489V449ZM254.807 443.049C254.807 444.034 254.682 444.908 254.433 445.672C254.183 446.436 253.823 447.083 253.353 447.611C252.897 448.14 252.339 448.545 251.678 448.824C251.016 449.088 250.274 449.22 249.452 449.22C248.702 449.22 248.004 449.088 247.358 448.824C246.711 448.545 246.153 448.14 245.683 447.611C245.213 447.083 244.845 446.436 244.581 445.672C244.331 444.908 244.206 444.026 244.206 443.027C244.206 441.719 244.419 440.61 244.845 439.699C245.271 438.788 245.881 438.098 246.675 437.627C247.483 437.142 248.438 436.9 249.54 436.9C250.568 436.9 251.479 437.142 252.273 437.627C253.066 438.098 253.683 438.788 254.124 439.699C254.58 440.61 254.807 441.727 254.807 443.049ZM246.675 443.049C246.675 443.931 246.77 444.695 246.961 445.341C247.167 445.973 247.475 446.458 247.887 446.796C248.313 447.134 248.849 447.303 249.496 447.303C250.157 447.303 250.693 447.134 251.105 446.796C251.531 446.458 251.839 445.973 252.03 445.341C252.236 444.695 252.339 443.931 252.339 443.049C252.339 442.138 252.236 441.374 252.03 440.757C251.825 440.14 251.516 439.67 251.105 439.346C250.693 439.009 250.15 438.84 249.474 438.84C248.489 438.84 247.777 439.207 247.336 439.942C246.895 440.676 246.675 441.712 246.675 443.049ZM259.77 443.6C259.77 443.777 259.763 444.004 259.748 444.283C259.733 444.563 259.719 444.856 259.704 445.165C259.689 445.459 259.675 445.738 259.66 446.003C259.645 446.252 259.631 446.451 259.616 446.598L265.192 437.12H268.013V449H265.787V442.675C265.787 442.395 265.794 442.05 265.809 441.639C265.824 441.227 265.838 440.831 265.853 440.448C265.868 440.052 265.883 439.751 265.897 439.545L260.365 449H257.522V437.12H259.77V443.6ZM275.99 449.22C274.946 449.22 274.028 449.007 273.235 448.581C272.456 448.155 271.846 447.494 271.405 446.598C270.979 445.687 270.766 444.533 270.766 443.137C270.766 441.668 271.001 440.478 271.471 439.567C271.941 438.656 272.581 437.987 273.389 437.561C274.197 437.12 275.123 436.9 276.166 436.9C276.783 436.9 277.371 436.974 277.929 437.12C278.502 437.253 278.972 437.407 279.34 437.583L278.612 439.457C278.245 439.31 277.848 439.178 277.422 439.06C276.996 438.942 276.592 438.884 276.21 438.884C275.534 438.884 274.976 439.045 274.535 439.369C274.109 439.677 273.786 440.147 273.565 440.779C273.345 441.396 273.235 442.175 273.235 443.115C273.235 444.012 273.345 444.768 273.565 445.385C273.786 446.003 274.109 446.473 274.535 446.796C274.976 447.105 275.505 447.259 276.122 447.259C276.724 447.259 277.26 447.185 277.731 447.038C278.216 446.892 278.664 446.7 279.075 446.465V448.493C278.664 448.743 278.216 448.927 277.731 449.044C277.246 449.162 276.665 449.22 275.99 449.22ZM288.592 437.12H291.215L286.609 442.829L291.612 449H288.857L284.03 442.983V449H281.65V437.12H284.03V442.895L288.592 437.12ZM297.919 436.9C299.315 436.9 300.366 437.231 301.071 437.892C301.791 438.538 302.151 439.56 302.151 440.955V449H300.454L299.991 447.347H299.903C299.565 447.773 299.227 448.126 298.889 448.405C298.566 448.684 298.184 448.89 297.743 449.022C297.317 449.154 296.788 449.22 296.156 449.22C295.495 449.22 294.9 449.096 294.371 448.846C293.842 448.581 293.423 448.185 293.115 447.656C292.806 447.112 292.652 446.436 292.652 445.628C292.652 444.423 293.078 443.505 293.93 442.873C294.797 442.241 296.112 441.896 297.875 441.837L299.771 441.771V441.11C299.771 440.228 299.587 439.611 299.22 439.258C298.867 438.906 298.367 438.729 297.721 438.729C297.177 438.729 296.641 438.818 296.112 438.994C295.583 439.17 295.069 439.383 294.569 439.633L293.842 437.936C294.386 437.642 295.003 437.4 295.693 437.209C296.399 437.003 297.141 436.9 297.919 436.9ZM298.338 443.336C297.133 443.394 296.296 443.622 295.825 444.019C295.355 444.401 295.12 444.945 295.12 445.65C295.12 446.267 295.282 446.715 295.605 446.994C295.943 447.274 296.376 447.413 296.905 447.413C297.714 447.413 298.389 447.156 298.933 446.642C299.491 446.127 299.771 445.356 299.771 444.328V443.292L298.338 443.336ZM313.875 438.994H310.194V449H307.836V438.994H304.199V437.12H313.875V438.994ZM320.325 436.9C321.31 436.9 322.162 437.12 322.882 437.561C323.602 437.987 324.153 438.604 324.535 439.413C324.932 440.221 325.13 441.176 325.13 442.278V443.556H317.658C317.688 444.776 317.982 445.709 318.54 446.355C319.098 447.002 319.884 447.325 320.898 447.325C321.618 447.325 322.257 447.259 322.816 447.127C323.389 446.98 323.969 446.767 324.557 446.487V448.427C323.998 448.691 323.425 448.89 322.838 449.022C322.265 449.154 321.567 449.22 320.744 449.22C319.671 449.22 318.716 448.993 317.879 448.537C317.041 448.082 316.387 447.406 315.917 446.509C315.447 445.598 315.212 444.482 315.212 443.159C315.212 441.822 315.425 440.691 315.851 439.765C316.277 438.84 316.872 438.134 317.636 437.649C318.415 437.15 319.311 436.9 320.325 436.9ZM320.325 438.707C319.576 438.707 318.973 438.979 318.518 439.523C318.062 440.066 317.798 440.838 317.724 441.837H322.772C322.772 441.22 322.683 440.676 322.507 440.206C322.331 439.736 322.059 439.369 321.692 439.104C321.339 438.84 320.884 438.707 320.325 438.707ZM337.053 449H334.628V438.994H331.587C331.44 440.816 331.264 442.381 331.058 443.688C330.852 444.981 330.588 446.032 330.265 446.84C329.956 447.648 329.567 448.243 329.096 448.625C328.641 448.993 328.097 449.176 327.465 449.176C327.245 449.176 327.025 449.154 326.804 449.11C326.584 449.081 326.393 449.029 326.231 448.956V447.171C326.349 447.2 326.466 447.229 326.584 447.259C326.701 447.274 326.819 447.281 326.936 447.281C327.201 447.281 327.443 447.163 327.664 446.928C327.884 446.693 328.083 446.326 328.259 445.826C328.45 445.327 328.619 444.68 328.766 443.887C328.927 443.079 329.067 442.116 329.185 440.999C329.302 439.883 329.405 438.59 329.493 437.12H337.053V449ZM345.567 441.903C346.595 441.903 347.44 442.035 348.101 442.3C348.777 442.55 349.277 442.924 349.6 443.424C349.938 443.923 350.107 444.555 350.107 445.319C350.107 446.069 349.945 446.723 349.622 447.281C349.299 447.825 348.799 448.251 348.123 448.559C347.447 448.853 346.558 449 345.456 449H340.387V437.12H342.768V441.903H345.567ZM347.705 445.407C347.705 444.761 347.499 444.32 347.087 444.085C346.691 443.835 346.096 443.71 345.302 443.71H342.768V447.237H345.346C346.037 447.237 346.603 447.097 347.043 446.818C347.484 446.539 347.705 446.069 347.705 445.407ZM117.249 475V459.263H128.622V475H126.219V461.313H119.695V475H117.249ZM142.251 469.049C142.251 470.034 142.126 470.908 141.876 471.672C141.626 472.436 141.266 473.083 140.796 473.611C140.341 474.14 139.782 474.545 139.121 474.824C138.46 475.088 137.718 475.22 136.895 475.22C136.146 475.22 135.448 475.088 134.801 474.824C134.155 474.545 133.596 474.14 133.126 473.611C132.656 473.083 132.289 472.436 132.024 471.672C131.774 470.908 131.649 470.026 131.649 469.027C131.649 467.719 131.862 466.61 132.289 465.699C132.715 464.788 133.324 464.098 134.118 463.627C134.926 463.142 135.881 462.9 136.983 462.9C138.012 462.9 138.923 463.142 139.716 463.627C140.51 464.098 141.127 464.788 141.567 465.699C142.023 466.61 142.251 467.727 142.251 469.049ZM134.118 469.049C134.118 469.931 134.213 470.695 134.404 471.341C134.61 471.973 134.919 472.458 135.33 472.796C135.756 473.134 136.293 473.303 136.939 473.303C137.6 473.303 138.137 473.134 138.548 472.796C138.974 472.458 139.283 471.973 139.474 471.341C139.679 470.695 139.782 469.931 139.782 469.049C139.782 468.138 139.679 467.374 139.474 466.757C139.268 466.14 138.959 465.67 138.548 465.346C138.137 465.009 137.593 464.84 136.917 464.84C135.933 464.84 135.22 465.207 134.779 465.942C134.338 466.676 134.118 467.712 134.118 469.049ZM149.572 475.22C148.528 475.22 147.61 475.007 146.817 474.581C146.038 474.155 145.428 473.494 144.987 472.598C144.561 471.687 144.348 470.533 144.348 469.137C144.348 467.668 144.583 466.478 145.054 465.567C145.524 464.656 146.163 463.987 146.971 463.561C147.779 463.12 148.705 462.9 149.748 462.9C150.365 462.9 150.953 462.974 151.511 463.12C152.084 463.253 152.554 463.407 152.922 463.583L152.194 465.457C151.827 465.31 151.43 465.178 151.004 465.06C150.578 464.942 150.174 464.884 149.792 464.884C149.116 464.884 148.558 465.045 148.117 465.369C147.691 465.677 147.368 466.147 147.147 466.779C146.927 467.396 146.817 468.175 146.817 469.115C146.817 470.012 146.927 470.768 147.147 471.385C147.368 472.003 147.691 472.473 148.117 472.796C148.558 473.105 149.087 473.259 149.704 473.259C150.306 473.259 150.843 473.185 151.313 473.038C151.798 472.892 152.246 472.7 152.657 472.465V474.493C152.246 474.743 151.798 474.927 151.313 475.044C150.828 475.162 150.248 475.22 149.572 475.22ZM163.673 464.994H159.993V475H157.634V464.994H153.998V463.12H163.673V464.994ZM170.318 462.9C171.714 462.9 172.764 463.231 173.469 463.892C174.189 464.538 174.549 465.56 174.549 466.955V475H172.852L172.389 473.347H172.301C171.963 473.773 171.625 474.126 171.287 474.405C170.964 474.684 170.582 474.89 170.141 475.022C169.715 475.154 169.186 475.22 168.555 475.22C167.893 475.22 167.298 475.096 166.769 474.846C166.24 474.581 165.822 474.185 165.513 473.656C165.204 473.112 165.05 472.436 165.05 471.628C165.05 470.423 165.476 469.505 166.328 468.873C167.195 468.241 168.51 467.896 170.274 467.837L172.169 467.771V467.11C172.169 466.228 171.985 465.611 171.618 465.258C171.265 464.906 170.766 464.729 170.119 464.729C169.576 464.729 169.039 464.818 168.51 464.994C167.981 465.17 167.467 465.383 166.968 465.633L166.24 463.936C166.784 463.642 167.401 463.4 168.092 463.209C168.797 463.003 169.539 462.9 170.318 462.9ZM170.736 469.336C169.532 469.394 168.694 469.622 168.224 470.019C167.754 470.401 167.519 470.945 167.519 471.65C167.519 472.267 167.68 472.715 168.004 472.994C168.341 473.274 168.775 473.413 169.304 473.413C170.112 473.413 170.788 473.156 171.332 472.642C171.89 472.127 172.169 471.356 172.169 470.328V469.292L170.736 469.336ZM187.221 466.14C187.221 466.86 187.022 467.433 186.626 467.859C186.229 468.27 185.685 468.55 184.995 468.697V468.785C185.729 468.888 186.339 469.159 186.824 469.6C187.324 470.026 187.573 470.658 187.573 471.496C187.573 472.01 187.485 472.48 187.309 472.906C187.147 473.332 186.875 473.707 186.493 474.03C186.126 474.339 185.641 474.581 185.039 474.758C184.436 474.919 183.709 475 182.857 475H177.832V463.12H182.857C183.709 463.12 184.466 463.216 185.127 463.407C185.788 463.598 186.302 463.914 186.67 464.355C187.037 464.795 187.221 465.391 187.221 466.14ZM185.127 471.452C185.127 470.834 184.914 470.394 184.488 470.129C184.076 469.85 183.459 469.71 182.636 469.71H180.212V473.237H182.658C183.452 473.237 184.062 473.105 184.488 472.84C184.914 472.561 185.127 472.098 185.127 471.452ZM184.818 466.404C184.818 465.89 184.649 465.515 184.311 465.28C183.988 465.045 183.467 464.928 182.747 464.928H180.212V467.925H182.416C183.209 467.925 183.804 467.808 184.201 467.573C184.613 467.323 184.818 466.933 184.818 466.404ZM205.99 463.12V473.149H207.753V479.144H205.483V475H190.143V463.12H192.523V473.127H196.887V463.12H199.246V473.127H203.609V463.12H205.99ZM211.999 469.6C211.999 469.777 211.992 470.004 211.977 470.283C211.962 470.563 211.948 470.856 211.933 471.165C211.918 471.459 211.903 471.738 211.889 472.003C211.874 472.252 211.859 472.451 211.845 472.598L217.421 463.12H220.242V475H218.016V468.675C218.016 468.395 218.023 468.05 218.038 467.639C218.053 467.227 218.067 466.831 218.082 466.448C218.097 466.052 218.111 465.751 218.126 465.545L212.594 475H209.751V463.12H211.999V469.6ZM230.555 463.12H233.177L228.571 468.829L233.574 475H230.819L225.992 468.983V475H223.612V463.12H225.992V468.895L230.555 463.12ZM245.372 475.22C244.329 475.22 243.411 475.007 242.617 474.581C241.839 474.155 241.229 473.494 240.788 472.598C240.362 471.687 240.149 470.533 240.149 469.137C240.149 467.668 240.384 466.478 240.854 465.567C241.324 464.656 241.964 463.987 242.772 463.561C243.58 463.12 244.506 462.9 245.549 462.9C246.166 462.9 246.754 462.974 247.312 463.12C247.885 463.253 248.355 463.407 248.723 463.583L247.995 465.457C247.628 465.31 247.231 465.178 246.805 465.06C246.379 464.942 245.975 464.884 245.593 464.884C244.917 464.884 244.359 465.045 243.918 465.369C243.492 465.677 243.168 466.147 242.948 466.779C242.728 467.396 242.617 468.175 242.617 469.115C242.617 470.012 242.728 470.768 242.948 471.385C243.168 472.003 243.492 472.473 243.918 472.796C244.359 473.105 244.888 473.259 245.505 473.259C246.107 473.259 246.643 473.185 247.114 473.038C247.598 472.892 248.047 472.7 248.458 472.465V474.493C248.047 474.743 247.598 474.927 247.114 475.044C246.629 475.162 246.048 475.22 245.372 475.22ZM255.529 462.9C256.925 462.9 257.975 463.231 258.681 463.892C259.401 464.538 259.761 465.56 259.761 466.955V475H258.064L257.601 473.347H257.513C257.175 473.773 256.837 474.126 256.499 474.405C256.175 474.684 255.793 474.89 255.353 475.022C254.926 475.154 254.398 475.22 253.766 475.22C253.105 475.22 252.509 475.096 251.98 474.846C251.452 474.581 251.033 474.185 250.724 473.656C250.416 473.112 250.261 472.436 250.261 471.628C250.261 470.423 250.687 469.505 251.54 468.873C252.407 468.241 253.722 467.896 255.485 467.837L257.38 467.771V467.11C257.38 466.228 257.197 465.611 256.829 465.258C256.477 464.906 255.977 464.729 255.331 464.729C254.787 464.729 254.251 464.818 253.722 464.994C253.193 465.17 252.678 465.383 252.179 465.633L251.452 463.936C251.995 463.642 252.612 463.4 253.303 463.209C254.008 463.003 254.75 462.9 255.529 462.9ZM255.948 469.336C254.743 469.394 253.905 469.622 253.435 470.019C252.965 470.401 252.73 470.945 252.73 471.65C252.73 472.267 252.891 472.715 253.215 472.994C253.553 473.274 253.986 473.413 254.515 473.413C255.323 473.413 255.999 473.156 256.543 472.642C257.101 472.127 257.38 471.356 257.38 470.328V469.292L255.948 469.336ZM275.892 463.12V475H273.71V467.947C273.71 467.55 273.718 467.154 273.732 466.757C273.762 466.346 273.798 465.956 273.842 465.589H273.776L270.382 475H268.509L265.181 465.589H265.115C265.144 465.956 265.166 466.346 265.181 466.757C265.195 467.154 265.203 467.573 265.203 468.013V475H263.043V463.12H266.283L269.456 472.223L272.674 463.12H275.892ZM289.234 469.049C289.234 470.034 289.109 470.908 288.859 471.672C288.61 472.436 288.25 473.083 287.779 473.611C287.324 474.14 286.766 474.545 286.104 474.824C285.443 475.088 284.701 475.22 283.878 475.22C283.129 475.22 282.431 475.088 281.785 474.824C281.138 474.545 280.58 474.14 280.11 473.611C279.639 473.083 279.272 472.436 279.008 471.672C278.758 470.908 278.633 470.026 278.633 469.027C278.633 467.719 278.846 466.61 279.272 465.699C279.698 464.788 280.308 464.098 281.101 463.627C281.909 463.142 282.865 462.9 283.967 462.9C284.995 462.9 285.906 463.142 286.699 463.627C287.493 464.098 288.11 464.788 288.551 465.699C289.006 466.61 289.234 467.727 289.234 469.049ZM281.101 469.049C281.101 469.931 281.197 470.695 281.388 471.341C281.594 471.973 281.902 472.458 282.314 472.796C282.74 473.134 283.276 473.303 283.922 473.303C284.584 473.303 285.12 473.134 285.531 472.796C285.957 472.458 286.266 471.973 286.457 471.341C286.663 470.695 286.766 469.931 286.766 469.049C286.766 468.138 286.663 467.374 286.457 466.757C286.251 466.14 285.943 465.67 285.531 465.346C285.12 465.009 284.576 464.84 283.9 464.84C282.916 464.84 282.203 465.207 281.763 465.942C281.322 466.676 281.101 467.712 281.101 469.049ZM303.652 479.166H301.426V475H291.949V463.12H294.329V473.127H299.508V463.12H301.911V473.149H303.652V479.166ZM315.048 466.14C315.048 466.86 314.85 467.433 314.453 467.859C314.056 468.27 313.513 468.55 312.822 468.697V468.785C313.557 468.888 314.167 469.159 314.652 469.6C315.151 470.026 315.401 470.658 315.401 471.496C315.401 472.01 315.313 472.48 315.136 472.906C314.975 473.332 314.703 473.707 314.321 474.03C313.954 474.339 313.469 474.581 312.866 474.758C312.264 474.919 311.537 475 310.684 475H305.659V463.12H310.684C311.537 463.12 312.293 463.216 312.954 463.407C313.616 463.598 314.13 463.914 314.497 464.355C314.865 464.795 315.048 465.391 315.048 466.14ZM312.954 471.452C312.954 470.834 312.741 470.394 312.315 470.129C311.904 469.85 311.287 469.71 310.464 469.71H308.04V473.237H310.486C311.279 473.237 311.889 473.105 312.315 472.84C312.741 472.561 312.954 472.098 312.954 471.452ZM312.646 466.404C312.646 465.89 312.477 465.515 312.139 465.28C311.816 465.045 311.294 464.928 310.574 464.928H308.04V467.925H310.244C311.037 467.925 311.632 467.808 312.029 467.573C312.44 467.323 312.646 466.933 312.646 466.404ZM322.467 462.9C323.451 462.9 324.303 463.12 325.023 463.561C325.743 463.987 326.294 464.604 326.676 465.413C327.073 466.221 327.271 467.176 327.271 468.278V469.556H319.8C319.829 470.776 320.123 471.709 320.682 472.355C321.24 473.002 322.026 473.325 323.04 473.325C323.76 473.325 324.399 473.259 324.957 473.127C325.53 472.98 326.111 472.767 326.698 472.487V474.427C326.14 474.691 325.567 474.89 324.979 475.022C324.406 475.154 323.708 475.22 322.886 475.22C321.813 475.22 320.858 474.993 320.02 474.537C319.183 474.082 318.529 473.406 318.059 472.509C317.589 471.598 317.353 470.482 317.353 469.159C317.353 467.822 317.567 466.691 317.993 465.765C318.419 464.84 319.014 464.134 319.778 463.649C320.557 463.15 321.453 462.9 322.467 462.9ZM322.467 464.707C321.717 464.707 321.115 464.979 320.659 465.523C320.204 466.066 319.94 466.838 319.866 467.837H324.913C324.913 467.22 324.825 466.676 324.649 466.206C324.472 465.736 324.201 465.369 323.833 465.104C323.481 464.84 323.025 464.707 322.467 464.707ZM338.379 464.994H334.698V475H332.34V464.994H328.703V463.12H338.379V464.994ZM350.318 469.049C350.318 470.034 350.193 470.908 349.943 471.672C349.693 472.436 349.333 473.083 348.863 473.611C348.407 474.14 347.849 474.545 347.188 474.824C346.527 475.088 345.785 475.22 344.962 475.22C344.212 475.22 343.515 475.088 342.868 474.824C342.222 474.545 341.663 474.14 341.193 473.611C340.723 473.083 340.355 472.436 340.091 471.672C339.841 470.908 339.716 470.026 339.716 469.027C339.716 467.719 339.929 466.61 340.355 465.699C340.782 464.788 341.391 464.098 342.185 463.627C342.993 463.142 343.948 462.9 345.05 462.9C346.079 462.9 346.989 463.142 347.783 463.627C348.576 464.098 349.193 464.788 349.634 465.699C350.09 466.61 350.318 467.727 350.318 469.049ZM342.185 469.049C342.185 469.931 342.28 470.695 342.471 471.341C342.677 471.973 342.986 472.458 343.397 472.796C343.823 473.134 344.359 473.303 345.006 473.303C345.667 473.303 346.203 473.134 346.615 472.796C347.041 472.458 347.349 471.973 347.54 471.341C347.746 470.695 347.849 469.931 347.849 469.049C347.849 468.138 347.746 467.374 347.54 466.757C347.335 466.14 347.026 465.67 346.615 465.346C346.203 465.009 345.66 464.84 344.984 464.84C343.999 464.84 343.287 465.207 342.846 465.942C342.405 466.676 342.185 467.712 342.185 469.049ZM362.421 466.14C362.421 466.86 362.223 467.433 361.826 467.859C361.429 468.27 360.886 468.55 360.195 468.697V468.785C360.93 468.888 361.54 469.159 362.025 469.6C362.524 470.026 362.774 470.658 362.774 471.496C362.774 472.01 362.686 472.48 362.509 472.906C362.348 473.332 362.076 473.707 361.694 474.03C361.327 474.339 360.842 474.581 360.239 474.758C359.637 474.919 358.91 475 358.057 475H353.032V463.12H358.057C358.91 463.12 359.666 463.216 360.327 463.407C360.989 463.598 361.503 463.914 361.87 464.355C362.238 464.795 362.421 465.391 362.421 466.14ZM360.327 471.452C360.327 470.834 360.114 470.394 359.688 470.129C359.277 469.85 358.66 469.71 357.837 469.71H355.413V473.237H357.859C358.652 473.237 359.262 473.105 359.688 472.84C360.114 472.561 360.327 472.098 360.327 471.452ZM360.019 466.404C360.019 465.89 359.85 465.515 359.512 465.28C359.189 465.045 358.667 464.928 357.947 464.928H355.413V467.925H357.617C358.41 467.925 359.005 467.808 359.402 467.573C359.813 467.323 360.019 466.933 360.019 466.404Z" fill="#C9BFB4"/>
<defs>
<filter id="filter0_n_191_74" x="19" y="22" width="427" height="491" filterUnits="userSpaceOnUse" color-interpolation-filters="sRGB">
<feFlood flood-opacity="0" result="BackgroundImageFix"/>
<feBlend mode="normal" in="SourceGraphic" in2="BackgroundImageFix" result="shape"/>
<feTurbulence type="fractalNoise" baseFrequency="1.0145409107208252 1.0145409107208252" stitchTiles="stitch" numOctaves="3" result="noise" seed="8718" />
<feColorMatrix in="noise" type="luminanceToAlpha" result="alphaNoise" />
<feComponentTransfer in="alphaNoise" result="coloredNoise1">
<feFuncA type="discrete" tableValues="1 1 1 1 1 1 1 1 1 1 1 1 1 1 1 1 1 1 1 1 1 1 1 1 1 1 1 1 1 1 1 1 1 1 1 1 1 1 1 1 1 1 1 1 1 1 1 1 1 1 1 0 0 0 0 0 0 0 0 0 0 0 0 0 0 0 0 0 0 0 0 0 0 0 0 0 0 0 0 0 0 0 0 0 0 0 0 0 0 0 0 0 0 0 0 0 0 0 0 0 "/>
</feComponentTransfer>
<feComposite operator="in" in2="shape" in="coloredNoise1" result="noise1Clipped" />
<feFlood flood-color="#000000" result="color1Flood" />
<feComposite operator="in" in2="noise1Clipped" in="color1Flood" result="color1" />
<feMerge result="effect1_noise_191_74">
<feMergeNode in="shape" />
<feMergeNode in="color1" />
</feMerge>
</filter>
</defs>
</svg>
