<svg width="465" height="536" viewBox="0 0 465 536" fill="none" xmlns="http://www.w3.org/2000/svg">
<g filter="url(#filter0_n_191_73)">
<rect x="19" y="22" width="427" height="491" fill="#2F332E"/>
</g>
<path d="M21.2611 6.48866H74.4139L120.48 12.9772L156.927 10.4816L159.458 2.49562L183.25 6.48866L187.3 13.4764H217.167L204.512 10.4816L200.968 0L241.465 11.2101L258.677 6.98774L281.456 11.2101L77.9574 276.016L21 270L0 276.016L11.1368 265.035L13.1616 249.562L5.56838 231.594L3.54352 218.616L4.55595 207.137L8.60568 216.62V212.128L7.59325 195.158L13.1616 163.713L7.59325 140.753L0 124.781L7.59325 114.299V103.818L4.55595 85.8494L13.1616 61.8914L0 22.4606L21.2611 6.48866Z" fill="#5A5959"/>
<path d="M281.456 11.2101L300.48 12.9772L336.927 10.4816L339.458 2.49562L363.25 6.48866L367.3 13.4764H397.167L384.512 10.4816L380.968 0L421.465 11.2101L438.677 6.98774L461.456 11.2101L453.863 13.4764L456.394 58.3975L457.913 96.331L463.988 102.82L465 130.271L456.394 149.737L462.469 162.715L463.988 176.69H456.394V222.11L463.988 236.086L456.394 237.583V244.571L465 274.019L461.488 262L444 258.929L441.445 258.477L438.677 257.988L421.465 262.21L281.456 11.2101Z" fill="#5A5959"/>
<path d="M281.456 11.2101L421.465 262.21L438.677 257.988L450.207 260.026L461.488 262L453.863 264.476L456.394 309.398L457.913 347.331L463.988 353.82L465 381.271L456.394 400.737L462.469 413.715L463.988 427.69H456.394V473.11L463.988 487.086L456.394 488.583V495.571L465 525.019L456.394 519.03L443.739 527.016H423.996L403.748 530.01L390.586 527.016L362.238 528.014L358.188 523.522L332.877 522.025L319.716 528.014L298.961 525.019L293.393 519.03L257.957 527.016L238.721 528.014L228.597 536L218.472 528.014L200.755 525.019L202.78 520.527L180 527.016L191.137 516.035L193 495.5L247.5 481.5L276.394 309.398L281.456 11.2101Z" fill="#5A5959"/>
<path d="M21 270L77.9574 276.016L281.456 11.2101L276.394 309.398L247.5 481.5L193 495.5L191.137 516.035L180 527L178.188 523.522L152.877 522.025L139.716 528.014L118.961 525.019L113.393 519.03L77.9574 527.016L58.7211 528.014L48.5968 536L38.4725 528.014L20.7549 525.019L22.7798 520.527L0 527.016L11.1368 516.035L13.1616 500.562L5.56838 482.594L3.54352 469.616L4.55595 458.137L8.60568 467.62V463.128L7.59325 446.158L13.1616 414.713L7.59325 391.753L0 375.781L7.59325 365.299V354.818L4.55595 336.849L13.1616 312.891L0 276L21 270Z" fill="#5A5959"/>
<path d="M160.884 429.263V431.313H154.558V445H152.112V429.263H160.884ZM167.737 432.9C169.075 432.9 170.147 433.414 170.955 434.443C171.763 435.471 172.167 437.007 172.167 439.049C172.167 440.386 171.976 441.518 171.594 442.443C171.227 443.369 170.705 444.067 170.03 444.537C169.354 444.993 168.568 445.22 167.671 445.22C167.128 445.22 166.643 445.147 166.217 445C165.791 444.838 165.431 444.633 165.137 444.383C164.858 444.118 164.608 443.839 164.387 443.545H164.255C164.284 443.81 164.314 444.126 164.343 444.493C164.373 444.846 164.387 445.162 164.387 445.441V450.29H162.007V433.12H163.947L164.277 434.707H164.387C164.608 434.384 164.865 434.083 165.159 433.804C165.467 433.525 165.827 433.304 166.239 433.142C166.665 432.981 167.164 432.9 167.737 432.9ZM167.098 434.818C166.452 434.818 165.93 434.964 165.533 435.258C165.137 435.538 164.843 435.964 164.652 436.537C164.476 437.095 164.387 437.808 164.387 438.675V439.027C164.387 439.938 164.468 440.717 164.63 441.363C164.806 441.995 165.093 442.48 165.489 442.818C165.901 443.141 166.452 443.303 167.142 443.303C167.73 443.303 168.215 443.127 168.597 442.774C168.979 442.407 169.258 441.9 169.434 441.253C169.626 440.607 169.721 439.857 169.721 439.005C169.721 437.712 169.501 436.691 169.06 435.942C168.634 435.192 167.98 434.818 167.098 434.818ZM184.884 439.049C184.884 440.034 184.759 440.908 184.509 441.672C184.259 442.436 183.899 443.083 183.429 443.611C182.974 444.14 182.415 444.545 181.754 444.824C181.093 445.088 180.351 445.22 179.528 445.22C178.779 445.22 178.081 445.088 177.434 444.824C176.788 444.545 176.229 444.14 175.759 443.611C175.289 443.083 174.922 442.436 174.657 441.672C174.407 440.908 174.282 440.026 174.282 439.027C174.282 437.719 174.495 436.61 174.922 435.699C175.348 434.788 175.957 434.098 176.751 433.627C177.559 433.142 178.514 432.9 179.616 432.9C180.645 432.9 181.556 433.142 182.349 433.627C183.143 434.098 183.76 434.788 184.2 435.699C184.656 436.61 184.884 437.727 184.884 439.049ZM176.751 439.049C176.751 439.931 176.846 440.695 177.037 441.341C177.243 441.973 177.552 442.458 177.963 442.796C178.389 443.134 178.926 443.303 179.572 443.303C180.233 443.303 180.77 443.134 181.181 442.796C181.607 442.458 181.916 441.973 182.107 441.341C182.312 440.695 182.415 439.931 182.415 439.049C182.415 438.138 182.312 437.374 182.107 436.757C181.901 436.14 181.592 435.67 181.181 435.346C180.77 435.009 180.226 434.84 179.55 434.84C178.566 434.84 177.853 435.207 177.412 435.942C176.971 436.676 176.751 437.712 176.751 439.049ZM193.329 432.9C194.666 432.9 195.738 433.414 196.547 434.443C197.355 435.471 197.759 437.007 197.759 439.049C197.759 440.386 197.568 441.518 197.186 442.443C196.818 443.369 196.297 444.067 195.621 444.537C194.945 444.993 194.159 445.22 193.263 445.22C192.719 445.22 192.234 445.147 191.808 445C191.382 444.838 191.022 444.633 190.728 444.383C190.449 444.118 190.199 443.839 189.979 443.545H189.846C189.876 443.81 189.905 444.126 189.935 444.493C189.964 444.846 189.979 445.162 189.979 445.441V450.29H187.598V433.12H189.538L189.868 434.707H189.979C190.199 434.384 190.456 434.083 190.75 433.804C191.059 433.525 191.419 433.304 191.83 433.142C192.256 432.981 192.756 432.9 193.329 432.9ZM192.69 434.818C192.043 434.818 191.521 434.964 191.125 435.258C190.728 435.538 190.434 435.964 190.243 436.537C190.067 437.095 189.979 437.808 189.979 438.675V439.027C189.979 439.938 190.059 440.717 190.221 441.363C190.397 441.995 190.684 442.48 191.081 442.818C191.492 443.141 192.043 443.303 192.734 443.303C193.321 443.303 193.806 443.127 194.188 442.774C194.57 442.407 194.85 441.9 195.026 441.253C195.217 440.607 195.312 439.857 195.312 439.005C195.312 437.712 195.092 436.691 194.651 435.942C194.225 435.192 193.571 434.818 192.69 434.818ZM202.871 433.12V437.947H208.139V433.12H210.519V445H208.139V439.821H202.871V445H200.491V433.12H202.871ZM228.274 429.263V431.313H221.948V445H219.502V429.263H228.274ZM235.127 432.9C236.464 432.9 237.537 433.414 238.345 434.443C239.153 435.471 239.557 437.007 239.557 439.049C239.557 440.386 239.366 441.518 238.984 442.443C238.617 443.369 238.095 444.067 237.419 444.537C236.743 444.993 235.957 445.22 235.061 445.22C234.517 445.22 234.033 445.147 233.606 445C233.18 444.838 232.82 444.633 232.527 444.383C232.247 444.118 231.998 443.839 231.777 443.545H231.645C231.674 443.81 231.704 444.126 231.733 444.493C231.762 444.846 231.777 445.162 231.777 445.441V450.29H229.397V433.12H231.336L231.667 434.707H231.777C231.998 434.384 232.255 434.083 232.549 433.804C232.857 433.525 233.217 433.304 233.629 433.142C234.055 432.981 234.554 432.9 235.127 432.9ZM234.488 434.818C233.842 434.818 233.32 434.964 232.923 435.258C232.527 435.538 232.233 435.964 232.042 436.537C231.865 437.095 231.777 437.808 231.777 438.675V439.027C231.777 439.938 231.858 440.717 232.02 441.363C232.196 441.995 232.482 442.48 232.879 442.818C233.291 443.141 233.842 443.303 234.532 443.303C235.12 443.303 235.605 443.127 235.987 442.774C236.369 442.407 236.648 441.9 236.824 441.253C237.015 440.607 237.111 439.857 237.111 439.005C237.111 437.712 236.89 436.691 236.45 435.942C236.024 435.192 235.37 434.818 234.488 434.818ZM246.786 432.9C248.181 432.9 249.232 433.231 249.937 433.892C250.657 434.538 251.017 435.56 251.017 436.955V445H249.32L248.857 443.347H248.769C248.431 443.773 248.093 444.126 247.755 444.405C247.432 444.684 247.05 444.89 246.609 445.022C246.183 445.154 245.654 445.22 245.022 445.22C244.361 445.22 243.766 445.096 243.237 444.846C242.708 444.581 242.289 444.185 241.981 443.656C241.672 443.112 241.518 442.436 241.518 441.628C241.518 440.423 241.944 439.505 242.796 438.873C243.663 438.241 244.978 437.896 246.741 437.837L248.637 437.771V437.11C248.637 436.228 248.453 435.611 248.086 435.258C247.733 434.906 247.234 434.729 246.587 434.729C246.044 434.729 245.507 434.818 244.978 434.994C244.449 435.17 243.935 435.383 243.435 435.633L242.708 433.936C243.252 433.642 243.869 433.4 244.559 433.209C245.265 433.003 246.007 432.9 246.786 432.9ZM247.204 439.336C245.999 439.394 245.162 439.622 244.692 440.019C244.222 440.401 243.986 440.945 243.986 441.65C243.986 442.267 244.148 442.715 244.471 442.994C244.809 443.274 245.243 443.413 245.772 443.413C246.58 443.413 247.256 443.156 247.799 442.642C248.358 442.127 248.637 441.356 248.637 440.328V439.292L247.204 439.336ZM263.688 436.14C263.688 436.86 263.49 437.433 263.093 437.859C262.697 438.27 262.153 438.55 261.462 438.697V438.785C262.197 438.888 262.807 439.159 263.292 439.6C263.791 440.026 264.041 440.658 264.041 441.496C264.041 442.01 263.953 442.48 263.777 442.906C263.615 443.332 263.343 443.707 262.961 444.03C262.594 444.339 262.109 444.581 261.507 444.758C260.904 444.919 260.177 445 259.325 445H254.299V433.12H259.325C260.177 433.12 260.933 433.216 261.595 433.407C262.256 433.598 262.77 433.914 263.137 434.355C263.505 434.795 263.688 435.391 263.688 436.14ZM261.595 441.452C261.595 440.834 261.382 440.394 260.956 440.129C260.544 439.85 259.927 439.71 259.104 439.71H256.68V443.237H259.126C259.92 443.237 260.529 443.105 260.956 442.84C261.382 442.561 261.595 442.098 261.595 441.452ZM261.286 436.404C261.286 435.89 261.117 435.515 260.779 435.28C260.456 435.045 259.934 434.928 259.214 434.928H256.68V437.925H258.884C259.677 437.925 260.272 437.808 260.669 437.573C261.08 437.323 261.286 436.933 261.286 436.404ZM271.107 432.9C272.091 432.9 272.944 433.12 273.664 433.561C274.384 433.987 274.935 434.604 275.317 435.413C275.713 436.221 275.912 437.176 275.912 438.278V439.556H268.44C268.47 440.776 268.763 441.709 269.322 442.355C269.88 443.002 270.666 443.325 271.68 443.325C272.4 443.325 273.039 443.259 273.598 443.127C274.171 442.98 274.751 442.767 275.339 442.487V444.427C274.78 444.691 274.207 444.89 273.62 445.022C273.047 445.154 272.349 445.22 271.526 445.22C270.453 445.22 269.498 444.993 268.661 444.537C267.823 444.082 267.169 443.406 266.699 442.509C266.229 441.598 265.994 440.482 265.994 439.159C265.994 437.822 266.207 436.691 266.633 435.765C267.059 434.84 267.654 434.134 268.418 433.649C269.197 433.15 270.093 432.9 271.107 432.9ZM271.107 434.707C270.358 434.707 269.755 434.979 269.3 435.523C268.844 436.066 268.58 436.838 268.506 437.837H273.553C273.553 437.22 273.465 436.676 273.289 436.206C273.113 435.736 272.841 435.369 272.473 435.104C272.121 434.84 271.665 434.707 271.107 434.707ZM284.308 432.9C285.645 432.9 286.718 433.414 287.526 434.443C288.334 435.471 288.738 437.007 288.738 439.049C288.738 440.386 288.547 441.518 288.165 442.443C287.798 443.369 287.276 444.067 286.6 444.537C285.924 444.993 285.138 445.22 284.242 445.22C283.698 445.22 283.214 445.147 282.787 445C282.361 444.838 282.001 444.633 281.708 444.383C281.428 444.118 281.179 443.839 280.958 443.545H280.826C280.855 443.81 280.885 444.126 280.914 444.493C280.943 444.846 280.958 445.162 280.958 445.441V450.29H278.578V433.12H280.517L280.848 434.707H280.958C281.179 434.384 281.436 434.083 281.73 433.804C282.038 433.525 282.398 433.304 282.81 433.142C283.236 432.981 283.735 432.9 284.308 432.9ZM283.669 434.818C283.023 434.818 282.501 434.964 282.104 435.258C281.708 435.538 281.414 435.964 281.223 436.537C281.046 437.095 280.958 437.808 280.958 438.675V439.027C280.958 439.938 281.039 440.717 281.201 441.363C281.377 441.995 281.663 442.48 282.06 442.818C282.472 443.141 283.023 443.303 283.713 443.303C284.301 443.303 284.786 443.127 285.168 442.774C285.55 442.407 285.829 441.9 286.005 441.253C286.196 440.607 286.292 439.857 286.292 439.005C286.292 437.712 286.071 436.691 285.631 435.942C285.205 435.192 284.551 434.818 283.669 434.818ZM301.454 439.049C301.454 440.034 301.33 440.908 301.08 441.672C300.83 442.436 300.47 443.083 300 443.611C299.544 444.14 298.986 444.545 298.325 444.824C297.664 445.088 296.922 445.22 296.099 445.22C295.349 445.22 294.651 445.088 294.005 444.824C293.358 444.545 292.8 444.14 292.33 443.611C291.86 443.083 291.492 442.436 291.228 441.672C290.978 440.908 290.853 440.026 290.853 439.027C290.853 437.719 291.066 436.61 291.492 435.699C291.919 434.788 292.528 434.098 293.322 433.627C294.13 433.142 295.085 432.9 296.187 432.9C297.215 432.9 298.126 433.142 298.92 433.627C299.713 434.098 300.33 434.788 300.771 435.699C301.227 436.61 301.454 437.727 301.454 439.049ZM293.322 439.049C293.322 439.931 293.417 440.695 293.608 441.341C293.814 441.973 294.123 442.458 294.534 442.796C294.96 443.134 295.496 443.303 296.143 443.303C296.804 443.303 297.34 443.134 297.752 442.796C298.178 442.458 298.486 441.973 298.677 441.341C298.883 440.695 298.986 439.931 298.986 439.049C298.986 438.138 298.883 437.374 298.677 436.757C298.472 436.14 298.163 435.67 297.752 435.346C297.34 435.009 296.797 434.84 296.121 434.84C295.136 434.84 294.424 435.207 293.983 435.942C293.542 436.676 293.322 437.712 293.322 439.049ZM313.558 436.14C313.558 436.86 313.36 437.433 312.963 437.859C312.566 438.27 312.023 438.55 311.332 438.697V438.785C312.067 438.888 312.677 439.159 313.162 439.6C313.661 440.026 313.911 440.658 313.911 441.496C313.911 442.01 313.823 442.48 313.646 442.906C313.485 443.332 313.213 443.707 312.831 444.03C312.464 444.339 311.979 444.581 311.376 444.758C310.774 444.919 310.047 445 309.194 445H304.169V433.12H309.194C310.047 433.12 310.803 433.216 311.464 433.407C312.126 433.598 312.64 433.914 313.007 434.355C313.375 434.795 313.558 435.391 313.558 436.14ZM311.464 441.452C311.464 440.834 311.251 440.394 310.825 440.129C310.414 439.85 309.797 439.71 308.974 439.71H306.55V443.237H308.996C309.789 443.237 310.399 443.105 310.825 442.84C311.251 442.561 311.464 442.098 311.464 441.452ZM311.156 436.404C311.156 435.89 310.987 435.515 310.649 435.28C310.326 435.045 309.804 434.928 309.084 434.928H306.55V437.925H308.754C309.547 437.925 310.142 437.808 310.539 437.573C310.95 437.323 311.156 436.933 311.156 436.404ZM120.271 455.263C122.196 455.263 123.599 455.682 124.481 456.52C125.377 457.343 125.825 458.496 125.825 459.98C125.825 460.641 125.722 461.273 125.516 461.875C125.325 462.478 125.002 463.022 124.547 463.506C124.106 463.977 123.511 464.351 122.761 464.63C122.012 464.895 121.094 465.027 120.006 465.027H118.464V471H116.017V455.263H120.271ZM120.139 457.269H118.464V463.022H119.742C120.535 463.022 121.197 462.926 121.726 462.735C122.254 462.529 122.651 462.213 122.916 461.787C123.195 461.346 123.334 460.773 123.334 460.068C123.334 459.128 123.077 458.43 122.563 457.974C122.049 457.504 121.241 457.269 120.139 457.269ZM132.991 458.9C134.387 458.9 135.438 459.231 136.143 459.892C136.863 460.538 137.223 461.56 137.223 462.955V471H135.526L135.063 469.347H134.975C134.637 469.773 134.299 470.126 133.961 470.405C133.638 470.684 133.256 470.89 132.815 471.022C132.389 471.154 131.86 471.22 131.228 471.22C130.567 471.22 129.972 471.096 129.443 470.846C128.914 470.581 128.495 470.185 128.187 469.656C127.878 469.112 127.724 468.436 127.724 467.628C127.724 466.423 128.15 465.505 129.002 464.873C129.869 464.241 131.184 463.896 132.947 463.837L134.843 463.771V463.11C134.843 462.228 134.659 461.611 134.292 461.258C133.939 460.906 133.439 460.729 132.793 460.729C132.249 460.729 131.713 460.818 131.184 460.994C130.655 461.17 130.141 461.383 129.641 461.633L128.914 459.936C129.457 459.642 130.075 459.4 130.765 459.209C131.47 459.003 132.212 458.9 132.991 458.9ZM133.41 465.336C132.205 465.394 131.368 465.622 130.897 466.019C130.427 466.401 130.192 466.945 130.192 467.65C130.192 468.267 130.354 468.715 130.677 468.994C131.015 469.274 131.448 469.413 131.977 469.413C132.786 469.413 133.461 469.156 134.005 468.642C134.563 468.127 134.843 467.356 134.843 466.328V465.292L133.41 465.336ZM139.91 463.881C139.91 462.133 140.086 460.649 140.439 459.429C140.806 458.209 141.379 457.24 142.158 456.52C142.937 455.785 143.958 455.285 145.222 455.021C146.045 454.845 146.867 454.683 147.69 454.536C148.513 454.389 149.299 454.257 150.048 454.139L150.379 456.189C150.012 456.233 149.615 456.292 149.189 456.365C148.763 456.439 148.329 456.512 147.889 456.586C147.448 456.659 147.022 456.733 146.61 456.806C146.213 456.88 145.861 456.953 145.552 457.027C145.038 457.115 144.59 457.269 144.208 457.489C143.841 457.71 143.532 458.004 143.282 458.371C143.032 458.738 142.834 459.209 142.687 459.782C142.54 460.34 142.452 461.023 142.423 461.831H142.555C142.731 461.552 142.981 461.266 143.304 460.972C143.627 460.678 144.017 460.436 144.472 460.244C144.943 460.039 145.471 459.936 146.059 459.936C146.985 459.936 147.778 460.156 148.44 460.597C149.101 461.023 149.6 461.633 149.938 462.426C150.276 463.205 150.445 464.138 150.445 465.226C150.445 466.563 150.217 467.679 149.762 468.576C149.321 469.457 148.704 470.118 147.911 470.559C147.132 471 146.213 471.22 145.156 471.22C144.362 471.22 143.642 471.066 142.996 470.758C142.349 470.434 141.798 469.964 141.343 469.347C140.887 468.715 140.535 467.944 140.285 467.033C140.035 466.122 139.91 465.071 139.91 463.881ZM145.332 469.303C145.861 469.303 146.316 469.178 146.698 468.928C147.095 468.678 147.404 468.274 147.624 467.716C147.844 467.158 147.955 466.408 147.955 465.468C147.955 464.337 147.771 463.44 147.404 462.779C147.036 462.118 146.427 461.787 145.574 461.787C145.045 461.787 144.56 461.927 144.12 462.206C143.679 462.471 143.304 462.772 142.996 463.11C142.702 463.448 142.489 463.734 142.356 463.969C142.356 464.66 142.401 465.321 142.489 465.953C142.592 466.585 142.753 467.15 142.974 467.65C143.194 468.149 143.488 468.554 143.855 468.862C144.237 469.156 144.729 469.303 145.332 469.303ZM163.167 465.049C163.167 466.034 163.042 466.908 162.792 467.672C162.542 468.436 162.182 469.083 161.712 469.611C161.256 470.14 160.698 470.545 160.037 470.824C159.376 471.088 158.634 471.22 157.811 471.22C157.061 471.22 156.364 471.088 155.717 470.824C155.071 470.545 154.512 470.14 154.042 469.611C153.572 469.083 153.204 468.436 152.94 467.672C152.69 466.908 152.565 466.026 152.565 465.027C152.565 463.719 152.778 462.61 153.204 461.699C153.631 460.788 154.24 460.098 155.034 459.627C155.842 459.142 156.797 458.9 157.899 458.9C158.928 458.9 159.838 459.142 160.632 459.627C161.425 460.098 162.042 460.788 162.483 461.699C162.939 462.61 163.167 463.727 163.167 465.049ZM155.034 465.049C155.034 465.931 155.129 466.695 155.32 467.341C155.526 467.973 155.835 468.458 156.246 468.796C156.672 469.134 157.208 469.303 157.855 469.303C158.516 469.303 159.052 469.134 159.464 468.796C159.89 468.458 160.198 467.973 160.389 467.341C160.595 466.695 160.698 465.931 160.698 465.049C160.698 464.138 160.595 463.374 160.389 462.757C160.184 462.14 159.875 461.67 159.464 461.346C159.052 461.009 158.509 460.84 157.833 460.84C156.848 460.84 156.136 461.207 155.695 461.942C155.254 462.676 155.034 463.712 155.034 465.049ZM174.129 460.994H170.448V471H168.09V460.994H164.453V459.12H174.129V460.994ZM178.657 459.12V463.947H183.925V459.12H186.305V471H183.925V465.821H178.657V471H176.277V459.12H178.657ZM191.913 465.6C191.913 465.777 191.905 466.004 191.891 466.283C191.876 466.563 191.861 466.856 191.847 467.165C191.832 467.459 191.817 467.738 191.802 468.003C191.788 468.252 191.773 468.451 191.758 468.598L197.335 459.12H200.156V471H197.93V464.675C197.93 464.395 197.937 464.05 197.952 463.639C197.966 463.227 197.981 462.831 197.996 462.448C198.01 462.052 198.025 461.751 198.04 461.545L192.508 471H189.665V459.12H191.913V465.6ZM210.468 459.12H213.091L208.485 464.829L213.488 471H210.733L205.906 464.983V471H203.526V459.12H205.906V464.895L210.468 459.12ZM225.286 471.22C224.243 471.22 223.325 471.007 222.531 470.581C221.752 470.155 221.143 469.494 220.702 468.598C220.276 467.687 220.063 466.533 220.063 465.137C220.063 463.668 220.298 462.478 220.768 461.567C221.238 460.656 221.877 459.987 222.685 459.561C223.494 459.12 224.419 458.9 225.463 458.9C226.08 458.9 226.667 458.974 227.226 459.12C227.799 459.253 228.269 459.407 228.636 459.583L227.909 461.457C227.542 461.31 227.145 461.178 226.719 461.06C226.293 460.942 225.889 460.884 225.507 460.884C224.831 460.884 224.272 461.045 223.832 461.369C223.405 461.677 223.082 462.147 222.862 462.779C222.641 463.396 222.531 464.175 222.531 465.115C222.531 466.012 222.641 466.768 222.862 467.385C223.082 468.003 223.405 468.473 223.832 468.796C224.272 469.105 224.801 469.259 225.418 469.259C226.021 469.259 226.557 469.185 227.027 469.038C227.512 468.892 227.96 468.7 228.372 468.465V470.493C227.96 470.743 227.512 470.927 227.027 471.044C226.542 471.162 225.962 471.22 225.286 471.22ZM243.27 459.12H245.893L241.286 464.829L246.289 471H243.534L238.708 464.983V471H236.327V459.12H238.708V464.895L243.27 459.12ZM257.357 471H254.933V460.994H251.892C251.745 462.816 251.568 464.381 251.363 465.688C251.157 466.981 250.892 468.032 250.569 468.84C250.261 469.648 249.871 470.243 249.401 470.625C248.946 470.993 248.402 471.176 247.77 471.176C247.55 471.176 247.329 471.154 247.109 471.11C246.888 471.081 246.697 471.029 246.536 470.956V469.171C246.653 469.2 246.771 469.229 246.888 469.259C247.006 469.274 247.124 469.281 247.241 469.281C247.506 469.281 247.748 469.163 247.968 468.928C248.189 468.693 248.387 468.326 248.564 467.826C248.755 467.327 248.924 466.68 249.07 465.887C249.232 465.079 249.372 464.116 249.489 462.999C249.607 461.883 249.71 460.59 249.798 459.12H257.357V471ZM262.94 465.6C262.94 465.777 262.933 466.004 262.918 466.283C262.903 466.563 262.889 466.856 262.874 467.165C262.859 467.459 262.844 467.738 262.83 468.003C262.815 468.252 262.8 468.451 262.786 468.598L268.362 459.12H271.183V471H268.957V464.675C268.957 464.395 268.964 464.05 268.979 463.639C268.994 463.227 269.008 462.831 269.023 462.448C269.038 462.052 269.052 461.751 269.067 461.545L263.535 471H260.692V459.12H262.94V465.6ZM279.049 458.9C280.034 458.9 280.886 459.12 281.606 459.561C282.326 459.987 282.877 460.604 283.259 461.413C283.655 462.221 283.854 463.176 283.854 464.278V465.556H276.382C276.412 466.776 276.706 467.709 277.264 468.355C277.822 469.002 278.608 469.325 279.622 469.325C280.342 469.325 280.981 469.259 281.54 469.127C282.113 468.98 282.693 468.767 283.281 468.487V470.427C282.722 470.691 282.149 470.89 281.562 471.022C280.989 471.154 280.291 471.22 279.468 471.22C278.395 471.22 277.44 470.993 276.603 470.537C275.765 470.082 275.111 469.406 274.641 468.509C274.171 467.598 273.936 466.482 273.936 465.159C273.936 463.822 274.149 462.691 274.575 461.765C275.001 460.84 275.596 460.134 276.36 459.649C277.139 459.15 278.035 458.9 279.049 458.9ZM279.049 460.707C278.3 460.707 277.697 460.979 277.242 461.523C276.786 462.066 276.522 462.838 276.448 463.837H281.496C281.496 463.22 281.407 462.676 281.231 462.206C281.055 461.736 280.783 461.369 280.416 461.104C280.063 460.84 279.607 460.707 279.049 460.707ZM288.9 459.12V463.947H294.168V459.12H296.548V471H294.168V465.821H288.9V471H286.52V459.12H288.9ZM308.349 460.994H304.668V471H302.31V460.994H298.673V459.12H308.349V460.994ZM314.993 458.9C316.389 458.9 317.44 459.231 318.145 459.892C318.865 460.538 319.225 461.56 319.225 462.955V471H317.528L317.065 469.347H316.977C316.639 469.773 316.301 470.126 315.963 470.405C315.64 470.684 315.258 470.89 314.817 471.022C314.391 471.154 313.862 471.22 313.23 471.22C312.569 471.22 311.974 471.096 311.445 470.846C310.916 470.581 310.497 470.185 310.189 469.656C309.88 469.112 309.726 468.436 309.726 467.628C309.726 466.423 310.152 465.505 311.004 464.873C311.871 464.241 313.186 463.896 314.949 463.837L316.845 463.771V463.11C316.845 462.228 316.661 461.611 316.294 461.258C315.941 460.906 315.441 460.729 314.795 460.729C314.251 460.729 313.715 460.818 313.186 460.994C312.657 461.17 312.143 461.383 311.643 461.633L310.916 459.936C311.459 459.642 312.077 459.4 312.767 459.209C313.472 459.003 314.214 458.9 314.993 458.9ZM315.412 465.336C314.207 465.394 313.37 465.622 312.899 466.019C312.429 466.401 312.194 466.945 312.194 467.65C312.194 468.267 312.356 468.715 312.679 468.994C313.017 469.274 313.45 469.413 313.979 469.413C314.788 469.413 315.463 469.156 316.007 468.642C316.565 468.127 316.845 467.356 316.845 466.328V465.292L315.412 465.336ZM335.356 459.12V471H333.174V463.947C333.174 463.55 333.182 463.154 333.197 462.757C333.226 462.346 333.263 461.956 333.307 461.589H333.241L329.846 471H327.973L324.645 461.589H324.579C324.608 461.956 324.63 462.346 324.645 462.757C324.66 463.154 324.667 463.573 324.667 464.013V471H322.507V459.12H325.747L328.921 468.223L332.139 459.12H335.356ZM340.962 465.6C340.962 465.777 340.955 466.004 340.94 466.283C340.926 466.563 340.911 466.856 340.896 467.165C340.882 467.459 340.867 467.738 340.852 468.003C340.837 468.252 340.823 468.451 340.808 468.598L346.384 459.12H349.205V471H346.979V464.675C346.979 464.395 346.987 464.05 347.001 463.639C347.016 463.227 347.031 462.831 347.045 462.448C347.06 462.052 347.075 461.751 347.089 461.545L341.557 471H338.714V459.12H340.962V465.6Z" fill="#C9BFB4"/>
<defs>
<filter id="filter0_n_191_73" x="19" y="22" width="427" height="491" filterUnits="userSpaceOnUse" color-interpolation-filters="sRGB">
<feFlood flood-opacity="0" result="BackgroundImageFix"/>
<feBlend mode="normal" in="SourceGraphic" in2="BackgroundImageFix" result="shape"/>
<feTurbulence type="fractalNoise" baseFrequency="1.0145409107208252 1.0145409107208252" stitchTiles="stitch" numOctaves="3" result="noise" seed="8718" />
<feColorMatrix in="noise" type="luminanceToAlpha" result="alphaNoise" />
<feComponentTransfer in="alphaNoise" result="coloredNoise1">
<feFuncA type="discrete" tableValues="1 1 1 1 1 1 1 1 1 1 1 1 1 1 1 1 1 1 1 1 1 1 1 1 1 1 1 1 1 1 1 1 1 1 1 1 1 1 1 1 1 1 1 1 1 1 1 1 1 1 1 0 0 0 0 0 0 0 0 0 0 0 0 0 0 0 0 0 0 0 0 0 0 0 0 0 0 0 0 0 0 0 0 0 0 0 0 0 0 0 0 0 0 0 0 0 0 0 0 0 "/>
</feComponentTransfer>
<feComposite operator="in" in2="shape" in="coloredNoise1" result="noise1Clipped" />
<feFlood flood-color="#000000" result="color1Flood" />
<feComposite operator="in" in2="noise1Clipped" in="color1Flood" result="color1" />
<feMerge result="effect1_noise_191_73">
<feMergeNode in="shape" />
<feMergeNode in="color1" />
</feMerge>
</filter>
</defs>
</svg>
