<svg width="465" height="536" viewBox="0 0 465 536" fill="none" xmlns="http://www.w3.org/2000/svg">
<g filter="url(#filter0_n_170_9)">
<rect x="19" y="22" width="427" height="491" fill="#2F332E"/>
</g>
<path d="M21.2611 6.48866H74.4139L120.48 12.9772L156.927 10.4816L159.458 2.49562L183.25 6.48866L187.3 13.4764H217.167L204.512 10.4816L200.968 0L241.465 11.2101L258.677 6.98774L281.456 11.2101L77.9574 276.016L21 270L0 276.016L11.1368 265.035L13.1616 249.562L5.56838 231.594L3.54352 218.616L4.55595 207.137L8.60568 216.62V212.128L7.59325 195.158L13.1616 163.713L7.59325 140.753L0 124.781L7.59325 114.299V103.818L4.55595 85.8494L13.1616 61.8914L0 22.4606L21.2611 6.48866Z" fill="#5A5959"/>
<path d="M281.456 11.2101L300.48 12.9772L336.927 10.4816L339.458 2.49562L363.25 6.48866L367.3 13.4764H397.167L384.512 10.4816L380.968 0L421.465 11.2101L438.677 6.98774L461.456 11.2101L453.863 13.4764L456.394 58.3975L457.913 96.331L463.988 102.82L465 130.271L456.394 149.737L462.469 162.715L463.988 176.69H456.394V222.11L463.988 236.086L456.394 237.583V244.571L465 274.019L461.488 262L444 258.929L441.445 258.477L438.677 257.988L421.465 262.21L281.456 11.2101Z" fill="#5A5959"/>
<path d="M281.456 11.2101L421.465 262.21L438.677 257.988L450.207 260.026L461.488 262L453.863 264.476L456.394 309.398L457.913 347.331L463.988 353.82L465 381.271L456.394 400.737L462.469 413.715L463.988 427.69H456.394V473.11L463.988 487.086L456.394 488.583V495.571L465 525.019L456.394 519.03L443.739 527.016H423.996L403.748 530.01L390.586 527.016L362.238 528.014L358.188 523.522L332.877 522.025L319.716 528.014L298.961 525.019L293.393 519.03L257.957 527.016L238.721 528.014L228.597 536L218.472 528.014L200.755 525.019L202.78 520.527L180 527.016L191.137 516.035L193 495.5L247.5 481.5L276.394 309.398L281.456 11.2101Z" fill="#5A5959"/>
<path d="M21 270L77.9574 276.016L281.456 11.2101L276.394 309.398L247.5 481.5L193 495.5L191.137 516.035L180 527L178.188 523.522L152.877 522.025L139.716 528.014L118.961 525.019L113.393 519.03L77.9574 527.016L58.7211 528.014L48.5968 536L38.4725 528.014L20.7549 525.019L22.7798 520.527L0 527.016L11.1368 516.035L13.1616 500.562L5.56838 482.594L3.54352 469.616L4.55595 458.137L8.60568 467.62V463.128L7.59325 446.158L13.1616 414.713L7.59325 391.753L0 375.781L7.59325 365.299V354.818L4.55595 336.849L13.1616 312.891L0 276L21 270Z" fill="#5A5959"/>
<path d="M142.298 429.263V431.313H135.973V445H133.526V429.263H142.298ZM147.186 432.9C148.582 432.9 149.632 433.231 150.338 433.892C151.058 434.538 151.418 435.56 151.418 436.955V445H149.721L149.258 443.347H149.17C148.832 443.773 148.494 444.126 148.156 444.405C147.832 444.684 147.45 444.89 147.01 445.022C146.583 445.154 146.055 445.22 145.423 445.22C144.762 445.22 144.166 445.096 143.637 444.846C143.109 444.581 142.69 444.185 142.381 443.656C142.073 443.112 141.918 442.436 141.918 441.628C141.918 440.423 142.344 439.505 143.197 438.873C144.064 438.241 145.379 437.896 147.142 437.837L149.037 437.771V437.11C149.037 436.228 148.854 435.611 148.486 435.258C148.134 434.906 147.634 434.729 146.988 434.729C146.444 434.729 145.908 434.818 145.379 434.994C144.85 435.17 144.335 435.383 143.836 435.633L143.109 433.936C143.652 433.642 144.269 433.4 144.96 433.209C145.665 433.003 146.407 432.9 147.186 432.9ZM147.605 439.336C146.4 439.394 145.562 439.622 145.092 440.019C144.622 440.401 144.387 440.945 144.387 441.65C144.387 442.267 144.548 442.715 144.872 442.994C145.21 443.274 145.643 443.413 146.172 443.413C146.98 443.413 147.656 443.156 148.2 442.642C148.758 442.127 149.037 441.356 149.037 440.328V439.292L147.605 439.336ZM160.43 432.9C161.767 432.9 162.84 433.414 163.648 434.443C164.456 435.471 164.86 437.007 164.86 439.049C164.86 440.386 164.669 441.518 164.287 442.443C163.92 443.369 163.398 444.067 162.722 444.537C162.046 444.993 161.26 445.22 160.364 445.22C159.82 445.22 159.336 445.147 158.909 445C158.483 444.838 158.123 444.633 157.829 444.383C157.55 444.118 157.301 443.839 157.08 443.545H156.948C156.977 443.81 157.007 444.126 157.036 444.493C157.065 444.846 157.08 445.162 157.08 445.441V450.29H154.7V433.12H156.639L156.97 434.707H157.08C157.301 434.384 157.558 434.083 157.852 433.804C158.16 433.525 158.52 433.304 158.931 433.142C159.358 432.981 159.857 432.9 160.43 432.9ZM159.791 434.818C159.145 434.818 158.623 434.964 158.226 435.258C157.829 435.538 157.536 435.964 157.345 436.537C157.168 437.095 157.08 437.808 157.08 438.675V439.027C157.08 439.938 157.161 440.717 157.323 441.363C157.499 441.995 157.785 442.48 158.182 442.818C158.594 443.141 159.145 443.303 159.835 443.303C160.423 443.303 160.908 443.127 161.29 442.774C161.672 442.407 161.951 441.9 162.127 441.253C162.318 440.607 162.414 439.857 162.414 439.005C162.414 437.712 162.193 436.691 161.753 435.942C161.327 435.192 160.673 434.818 159.791 434.818ZM173.323 432.9C174.66 432.9 175.732 433.414 176.541 434.443C177.349 435.471 177.753 437.007 177.753 439.049C177.753 440.386 177.562 441.518 177.18 442.443C176.812 443.369 176.291 444.067 175.615 444.537C174.939 444.993 174.153 445.22 173.257 445.22C172.713 445.22 172.228 445.147 171.802 445C171.376 444.838 171.016 444.633 170.722 444.383C170.443 444.118 170.193 443.839 169.973 443.545H169.84C169.87 443.81 169.899 444.126 169.929 444.493C169.958 444.846 169.973 445.162 169.973 445.441V450.29H167.592V433.12H169.532L169.862 434.707H169.973C170.193 434.384 170.45 434.083 170.744 433.804C171.053 433.525 171.413 433.304 171.824 433.142C172.25 432.981 172.75 432.9 173.323 432.9ZM172.684 434.818C172.037 434.818 171.515 434.964 171.119 435.258C170.722 435.538 170.428 435.964 170.237 436.537C170.061 437.095 169.973 437.808 169.973 438.675V439.027C169.973 439.938 170.053 440.717 170.215 441.363C170.391 441.995 170.678 442.48 171.075 442.818C171.486 443.141 172.037 443.303 172.728 443.303C173.315 443.303 173.8 443.127 174.182 442.774C174.564 442.407 174.844 441.9 175.02 441.253C175.211 440.607 175.306 439.857 175.306 439.005C175.306 437.712 175.086 436.691 174.645 435.942C174.219 435.192 173.565 434.818 172.684 434.818ZM182.733 439.6C182.733 439.777 182.726 440.004 182.711 440.283C182.696 440.563 182.682 440.856 182.667 441.165C182.652 441.459 182.637 441.738 182.623 442.003C182.608 442.252 182.593 442.451 182.579 442.598L188.155 433.12H190.976V445H188.75V438.675C188.75 438.395 188.757 438.05 188.772 437.639C188.787 437.227 188.801 436.831 188.816 436.448C188.831 436.052 188.845 435.751 188.86 435.545L183.328 445H180.485V433.12H182.733V439.6ZM201.289 433.12H203.911L199.305 438.829L204.308 445H201.553L196.726 438.983V445H194.346V433.12H196.726V438.895L201.289 433.12ZM224.9 437.11C224.9 438.329 224.753 439.439 224.46 440.438C224.18 441.422 223.747 442.274 223.159 442.994C222.586 443.714 221.866 444.265 220.999 444.647C220.132 445.029 219.126 445.22 217.98 445.22C216.804 445.22 215.776 445.029 214.894 444.647C214.027 444.251 213.307 443.7 212.734 442.994C212.161 442.274 211.735 441.415 211.456 440.416C211.177 439.417 211.037 438.307 211.037 437.088C211.037 435.471 211.287 434.061 211.787 432.856C212.301 431.651 213.072 430.711 214.101 430.035C215.129 429.359 216.43 429.021 218.002 429.021C219.53 429.021 220.801 429.359 221.815 430.035C222.843 430.696 223.615 431.636 224.129 432.856C224.643 434.061 224.9 435.479 224.9 437.11ZM213.616 437.11C213.616 438.373 213.763 439.461 214.057 440.372C214.365 441.268 214.843 441.966 215.489 442.465C216.151 442.95 216.981 443.193 217.98 443.193C218.994 443.193 219.817 442.95 220.448 442.465C221.095 441.966 221.565 441.268 221.859 440.372C222.167 439.461 222.322 438.373 222.322 437.11C222.322 435.214 221.976 433.738 221.286 432.68C220.595 431.607 219.501 431.071 218.002 431.071C216.988 431.071 216.151 431.313 215.489 431.798C214.843 432.283 214.365 432.974 214.057 433.87C213.763 434.766 213.616 435.846 213.616 437.11ZM235.022 433.12V434.994H230.174V445H227.793V433.12H235.022ZM239.536 433.12V437.947H244.804V433.12H247.184V445H244.804V439.821H239.536V445H237.156V433.12H239.536ZM255.04 432.9C256.024 432.9 256.876 433.12 257.596 433.561C258.316 433.987 258.867 434.604 259.249 435.413C259.646 436.221 259.844 437.176 259.844 438.278V439.556H252.373C252.402 440.776 252.696 441.709 253.255 442.355C253.813 443.002 254.599 443.325 255.613 443.325C256.333 443.325 256.972 443.259 257.53 443.127C258.103 442.98 258.684 442.767 259.271 442.487V444.427C258.713 444.691 258.14 444.89 257.552 445.022C256.979 445.154 256.281 445.22 255.459 445.22C254.386 445.22 253.431 444.993 252.593 444.537C251.756 444.082 251.102 443.406 250.632 442.509C250.162 441.598 249.926 440.482 249.926 439.159C249.926 437.822 250.14 436.691 250.566 435.765C250.992 434.84 251.587 434.134 252.351 433.649C253.13 433.15 254.026 432.9 255.04 432.9ZM255.04 434.707C254.29 434.707 253.688 434.979 253.232 435.523C252.777 436.066 252.513 436.838 252.439 437.837H257.486C257.486 437.22 257.398 436.676 257.222 436.206C257.045 435.736 256.774 435.369 256.406 435.104C256.054 434.84 255.598 434.707 255.04 434.707ZM269.453 433.12H272.076L267.47 438.829L272.473 445H269.718L264.891 438.983V445H262.511V433.12H264.891V438.895L269.453 433.12ZM272.631 433.12H275.188L277.458 439.865C277.575 440.203 277.678 440.533 277.766 440.856C277.869 441.18 277.95 441.503 278.009 441.826C278.082 442.135 278.141 442.443 278.185 442.752H278.251C278.325 442.37 278.427 441.922 278.56 441.407C278.692 440.879 278.839 440.357 279 439.843L281.16 433.12H283.739L278.978 446.609C278.699 447.373 278.361 448.027 277.965 448.57C277.583 449.129 277.112 449.555 276.554 449.849C276.01 450.143 275.357 450.29 274.592 450.29C274.269 450.29 273.975 450.268 273.711 450.223C273.461 450.194 273.241 450.157 273.05 450.113V448.262C273.197 448.291 273.38 448.321 273.601 448.35C273.821 448.379 274.049 448.394 274.284 448.394C274.71 448.394 275.077 448.306 275.386 448.13C275.694 447.953 275.952 447.704 276.157 447.38C276.363 447.072 276.532 446.704 276.664 446.278L277.105 445L272.631 433.12ZM288.695 432.9C289.533 432.9 290.282 433.018 290.944 433.253C291.605 433.488 292.126 433.84 292.508 434.311C292.89 434.781 293.081 435.354 293.081 436.03C293.081 436.75 292.89 437.323 292.508 437.749C292.126 438.175 291.612 438.484 290.966 438.675V438.763C291.436 438.895 291.855 439.079 292.222 439.314C292.604 439.534 292.905 439.835 293.126 440.217C293.346 440.585 293.456 441.07 293.456 441.672C293.456 442.318 293.272 442.914 292.905 443.457C292.552 444.001 292.001 444.434 291.252 444.758C290.517 445.066 289.562 445.22 288.387 445.22C287.829 445.22 287.307 445.191 286.822 445.132C286.337 445.073 285.896 444.985 285.5 444.868C285.103 444.75 284.75 444.611 284.442 444.449V442.421C284.912 442.656 285.47 442.869 286.117 443.06C286.778 443.251 287.498 443.347 288.277 443.347C288.835 443.347 289.32 443.288 289.731 443.171C290.157 443.053 290.488 442.862 290.723 442.598C290.973 442.333 291.098 441.981 291.098 441.54C291.098 441.114 290.988 440.768 290.767 440.504C290.547 440.239 290.216 440.041 289.775 439.909C289.335 439.777 288.762 439.71 288.056 439.71H286.624V437.925H287.836C288.776 437.925 289.511 437.808 290.04 437.573C290.584 437.323 290.855 436.889 290.855 436.272C290.855 435.773 290.657 435.398 290.26 435.148C289.864 434.884 289.283 434.751 288.519 434.751C287.931 434.751 287.38 434.818 286.866 434.95C286.367 435.067 285.845 435.251 285.301 435.501L284.53 433.738C285.147 433.473 285.794 433.267 286.469 433.12C287.16 432.974 287.902 432.9 288.695 432.9ZM298.381 433.12V437.947H303.649V433.12H306.029V445H303.649V439.821H298.381V445H296.001V433.12H298.381ZM313.885 432.9C314.869 432.9 315.721 433.12 316.441 433.561C317.161 433.987 317.712 434.604 318.094 435.413C318.491 436.221 318.69 437.176 318.69 438.278V439.556H311.218C311.247 440.776 311.541 441.709 312.1 442.355C312.658 443.002 313.444 443.325 314.458 443.325C315.178 443.325 315.817 443.259 316.375 443.127C316.948 442.98 317.529 442.767 318.116 442.487V444.427C317.558 444.691 316.985 444.89 316.397 445.022C315.824 445.154 315.126 445.22 314.304 445.22C313.231 445.22 312.276 444.993 311.438 444.537C310.601 444.082 309.947 443.406 309.477 442.509C309.007 441.598 308.772 440.482 308.772 439.159C308.772 437.822 308.985 436.691 309.411 435.765C309.837 434.84 310.432 434.134 311.196 433.649C311.975 433.15 312.871 432.9 313.885 432.9ZM313.885 434.707C313.135 434.707 312.533 434.979 312.078 435.523C311.622 436.066 311.358 436.838 311.284 437.837H316.331C316.331 437.22 316.243 436.676 316.067 436.206C315.89 435.736 315.619 435.369 315.251 435.104C314.899 434.84 314.443 434.707 313.885 434.707ZM333.059 449.166H330.833V445H321.356V433.12H323.736V443.127H328.915V433.12H331.318V443.149H333.059V449.166ZM127.415 471L123.095 457.622H123.007C123.036 457.916 123.058 458.312 123.073 458.812C123.102 459.311 123.124 459.848 123.139 460.421C123.168 460.994 123.183 461.56 123.183 462.118V471H120.957V455.263H124.395L128.539 467.892H128.605L132.814 455.263H136.253V471H133.916V461.986C133.916 461.471 133.924 460.942 133.938 460.399C133.953 459.84 133.975 459.319 134.004 458.834C134.034 458.349 134.056 457.952 134.071 457.644H133.982L129.552 471H127.415ZM144.366 458.9C145.762 458.9 146.813 459.231 147.518 459.892C148.238 460.538 148.598 461.56 148.598 462.955V471H146.901L146.438 469.347H146.35C146.012 469.773 145.674 470.126 145.336 470.405C145.013 470.684 144.631 470.89 144.19 471.022C143.764 471.154 143.235 471.22 142.603 471.22C141.942 471.22 141.347 471.096 140.818 470.846C140.289 470.581 139.87 470.185 139.562 469.656C139.253 469.112 139.099 468.436 139.099 467.628C139.099 466.423 139.525 465.505 140.377 464.873C141.244 464.241 142.559 463.896 144.322 463.837L146.218 463.771V463.11C146.218 462.228 146.034 461.611 145.667 461.258C145.314 460.906 144.814 460.729 144.168 460.729C143.624 460.729 143.088 460.818 142.559 460.994C142.03 461.17 141.516 461.383 141.016 461.633L140.289 459.936C140.833 459.642 141.45 459.4 142.14 459.209C142.846 459.003 143.588 458.9 144.366 458.9ZM144.785 465.336C143.58 465.394 142.743 465.622 142.273 466.019C141.802 466.401 141.567 466.945 141.567 467.65C141.567 468.267 141.729 468.715 142.052 468.994C142.39 469.274 142.824 469.413 143.353 469.413C144.161 469.413 144.837 469.156 145.38 468.642C145.939 468.127 146.218 467.356 146.218 466.328V465.292L144.785 465.336ZM156.487 471.22C155.443 471.22 154.525 471.007 153.732 470.581C152.953 470.155 152.343 469.494 151.902 468.598C151.476 467.687 151.263 466.533 151.263 465.137C151.263 463.668 151.498 462.478 151.968 461.567C152.439 460.656 153.078 459.987 153.886 459.561C154.694 459.12 155.62 458.9 156.663 458.9C157.28 458.9 157.868 458.974 158.426 459.12C158.999 459.253 159.469 459.407 159.837 459.583L159.109 461.457C158.742 461.31 158.345 461.178 157.919 461.06C157.493 460.942 157.089 460.884 156.707 460.884C156.031 460.884 155.473 461.045 155.032 461.369C154.606 461.677 154.283 462.147 154.062 462.779C153.842 463.396 153.732 464.175 153.732 465.115C153.732 466.012 153.842 466.768 154.062 467.385C154.283 468.003 154.606 468.473 155.032 468.796C155.473 469.105 156.002 469.259 156.619 469.259C157.221 469.259 157.758 469.185 158.228 469.038C158.713 468.892 159.161 468.7 159.572 468.465V470.493C159.161 470.743 158.713 470.927 158.228 471.044C157.743 471.162 157.163 471.22 156.487 471.22ZM170.588 460.994H166.908V471H164.549V460.994H160.913V459.12H170.588V460.994ZM177.039 458.9C178.023 458.9 178.876 459.12 179.596 459.561C180.316 459.987 180.867 460.604 181.249 461.413C181.645 462.221 181.844 463.176 181.844 464.278V465.556H174.372C174.401 466.776 174.695 467.709 175.254 468.355C175.812 469.002 176.598 469.325 177.612 469.325C178.332 469.325 178.971 469.259 179.529 469.127C180.102 468.98 180.683 468.767 181.271 468.487V470.427C180.712 470.691 180.139 470.89 179.551 471.022C178.978 471.154 178.28 471.22 177.458 471.22C176.385 471.22 175.43 470.993 174.592 470.537C173.755 470.082 173.101 469.406 172.631 468.509C172.161 467.598 171.926 466.482 171.926 465.159C171.926 463.822 172.139 462.691 172.565 461.765C172.991 460.84 173.586 460.134 174.35 459.649C175.129 459.15 176.025 458.9 177.039 458.9ZM177.039 460.707C176.29 460.707 175.687 460.979 175.232 461.523C174.776 462.066 174.512 462.838 174.438 463.837H179.485C179.485 463.22 179.397 462.676 179.221 462.206C179.045 461.736 178.773 461.369 178.405 461.104C178.053 460.84 177.597 460.707 177.039 460.707ZM190.24 458.9C191.577 458.9 192.65 459.414 193.458 460.443C194.266 461.471 194.67 463.007 194.67 465.049C194.67 466.386 194.479 467.518 194.097 468.443C193.73 469.369 193.208 470.067 192.532 470.537C191.856 470.993 191.07 471.22 190.174 471.22C189.63 471.22 189.145 471.147 188.719 471C188.293 470.838 187.933 470.633 187.639 470.383C187.36 470.118 187.11 469.839 186.89 469.545H186.758C186.787 469.81 186.817 470.126 186.846 470.493C186.875 470.846 186.89 471.162 186.89 471.441V476.29H184.51V459.12H186.449L186.78 460.707H186.89C187.11 460.384 187.368 460.083 187.661 459.804C187.97 459.525 188.33 459.304 188.741 459.142C189.168 458.981 189.667 458.9 190.24 458.9ZM189.601 460.818C188.954 460.818 188.433 460.964 188.036 461.258C187.639 461.538 187.346 461.964 187.155 462.537C186.978 463.095 186.89 463.808 186.89 464.675V465.027C186.89 465.938 186.971 466.717 187.133 467.363C187.309 467.995 187.595 468.48 187.992 468.818C188.403 469.141 188.954 469.303 189.645 469.303C190.233 469.303 190.718 469.127 191.1 468.774C191.482 468.407 191.761 467.9 191.937 467.253C192.128 466.607 192.224 465.857 192.224 465.005C192.224 463.712 192.003 462.691 191.563 461.942C191.136 461.192 190.483 460.818 189.601 460.818ZM196.455 466.085V464.101H201.656V466.085H196.455ZM211.282 459.12V460.994H206.433V471H204.053V459.12H211.282ZM219.146 458.9C220.483 458.9 221.556 459.414 222.364 460.443C223.172 461.471 223.576 463.007 223.576 465.049C223.576 466.386 223.385 467.518 223.003 468.443C222.636 469.369 222.114 470.067 221.438 470.537C220.762 470.993 219.976 471.22 219.08 471.22C218.536 471.22 218.051 471.147 217.625 471C217.199 470.838 216.839 470.633 216.545 470.383C216.266 470.118 216.016 469.839 215.796 469.545H215.664C215.693 469.81 215.723 470.126 215.752 470.493C215.781 470.846 215.796 471.162 215.796 471.441V476.29H213.416V459.12H215.355L215.686 460.707H215.796C216.016 460.384 216.274 460.083 216.567 459.804C216.876 459.525 217.236 459.304 217.647 459.142C218.073 458.981 218.573 458.9 219.146 458.9ZM218.507 460.818C217.86 460.818 217.339 460.964 216.942 461.258C216.545 461.538 216.252 461.964 216.061 462.537C215.884 463.095 215.796 463.808 215.796 464.675V465.027C215.796 465.938 215.877 466.717 216.038 467.363C216.215 467.995 216.501 468.48 216.898 468.818C217.309 469.141 217.86 469.303 218.551 469.303C219.139 469.303 219.624 469.127 220.006 468.774C220.388 468.407 220.667 467.9 220.843 467.253C221.034 466.607 221.13 465.857 221.13 465.005C221.13 463.712 220.909 462.691 220.469 461.942C220.042 461.192 219.389 460.818 218.507 460.818ZM230.804 458.9C232.2 458.9 233.251 459.231 233.956 459.892C234.676 460.538 235.036 461.56 235.036 462.955V471H233.339L232.876 469.347H232.788C232.45 469.773 232.112 470.126 231.774 470.405C231.451 470.684 231.069 470.89 230.628 471.022C230.202 471.154 229.673 471.22 229.041 471.22C228.38 471.22 227.785 471.096 227.256 470.846C226.727 470.581 226.308 470.185 226 469.656C225.691 469.112 225.537 468.436 225.537 467.628C225.537 466.423 225.963 465.505 226.815 464.873C227.682 464.241 228.997 463.896 230.76 463.837L232.656 463.771V463.11C232.656 462.228 232.472 461.611 232.105 461.258C231.752 460.906 231.253 460.729 230.606 460.729C230.062 460.729 229.526 460.818 228.997 460.994C228.468 461.17 227.954 461.383 227.454 461.633L226.727 459.936C227.271 459.642 227.888 459.4 228.578 459.209C229.284 459.003 230.026 458.9 230.804 458.9ZM231.223 465.336C230.018 465.394 229.181 465.622 228.711 466.019C228.24 466.401 228.005 466.945 228.005 467.65C228.005 468.267 228.167 468.715 228.49 468.994C228.828 469.274 229.262 469.413 229.791 469.413C230.599 469.413 231.275 469.156 231.818 468.642C232.377 468.127 232.656 467.356 232.656 466.328V465.292L231.223 465.336ZM247.707 462.14C247.707 462.86 247.509 463.433 247.112 463.859C246.716 464.27 246.172 464.55 245.481 464.697V464.785C246.216 464.888 246.826 465.159 247.311 465.6C247.81 466.026 248.06 466.658 248.06 467.496C248.06 468.01 247.972 468.48 247.795 468.906C247.634 469.332 247.362 469.707 246.98 470.03C246.613 470.339 246.128 470.581 245.525 470.758C244.923 470.919 244.196 471 243.343 471H238.318V459.12H243.343C244.196 459.12 244.952 459.216 245.614 459.407C246.275 459.598 246.789 459.914 247.156 460.355C247.524 460.795 247.707 461.391 247.707 462.14ZM245.614 467.452C245.614 466.834 245.4 466.394 244.974 466.129C244.563 465.85 243.946 465.71 243.123 465.71H240.699V469.237H243.145C243.938 469.237 244.548 469.105 244.974 468.84C245.4 468.561 245.614 468.098 245.614 467.452ZM245.305 462.404C245.305 461.89 245.136 461.515 244.798 461.28C244.475 461.045 243.953 460.928 243.233 460.928H240.699V463.925H242.903C243.696 463.925 244.291 463.808 244.688 463.573C245.099 463.323 245.305 462.933 245.305 462.404ZM252.878 465.6C252.878 465.777 252.87 466.004 252.856 466.283C252.841 466.563 252.826 466.856 252.812 467.165C252.797 467.459 252.782 467.738 252.768 468.003C252.753 468.252 252.738 468.451 252.723 468.598L258.3 459.12H261.121V471H258.895V464.675C258.895 464.395 258.902 464.05 258.917 463.639C258.931 463.227 258.946 462.831 258.961 462.448C258.975 462.052 258.99 461.751 259.005 461.545L253.473 471H250.63V459.12H252.878V465.6ZM270.221 458.9C271.558 458.9 272.631 459.414 273.439 460.443C274.247 461.471 274.651 463.007 274.651 465.049C274.651 466.386 274.46 467.518 274.078 468.443C273.711 469.369 273.189 470.067 272.513 470.537C271.837 470.993 271.051 471.22 270.155 471.22C269.611 471.22 269.127 471.147 268.7 471C268.274 470.838 267.914 470.633 267.62 470.383C267.341 470.118 267.091 469.839 266.871 469.545H266.739C266.768 469.81 266.798 470.126 266.827 470.493C266.856 470.846 266.871 471.162 266.871 471.441V476.29H264.491V459.12H266.43L266.761 460.707H266.871C267.091 460.384 267.349 460.083 267.642 459.804C267.951 459.525 268.311 459.304 268.722 459.142C269.149 458.981 269.648 458.9 270.221 458.9ZM269.582 460.818C268.936 460.818 268.414 460.964 268.017 461.258C267.62 461.538 267.327 461.964 267.136 462.537C266.959 463.095 266.871 463.808 266.871 464.675V465.027C266.871 465.938 266.952 466.717 267.114 467.363C267.29 467.995 267.576 468.48 267.973 468.818C268.385 469.141 268.936 469.303 269.626 469.303C270.214 469.303 270.699 469.127 271.081 468.774C271.463 468.407 271.742 467.9 271.918 467.253C272.109 466.607 272.205 465.857 272.205 465.005C272.205 463.712 271.984 462.691 271.544 461.942C271.117 461.192 270.464 460.818 269.582 460.818ZM287.367 465.049C287.367 466.034 287.243 466.908 286.993 467.672C286.743 468.436 286.383 469.083 285.913 469.611C285.457 470.14 284.899 470.545 284.238 470.824C283.577 471.088 282.835 471.22 282.012 471.22C281.262 471.22 280.564 471.088 279.918 470.824C279.271 470.545 278.713 470.14 278.243 469.611C277.773 469.083 277.405 468.436 277.141 467.672C276.891 466.908 276.766 466.026 276.766 465.027C276.766 463.719 276.979 462.61 277.405 461.699C277.831 460.788 278.441 460.098 279.235 459.627C280.043 459.142 280.998 458.9 282.1 458.9C283.128 458.9 284.039 459.142 284.833 459.627C285.626 460.098 286.243 460.788 286.684 461.699C287.14 462.61 287.367 463.727 287.367 465.049ZM279.235 465.049C279.235 465.931 279.33 466.695 279.521 467.341C279.727 467.973 280.035 468.458 280.447 468.796C280.873 469.134 281.409 469.303 282.056 469.303C282.717 469.303 283.253 469.134 283.665 468.796C284.091 468.458 284.399 467.973 284.59 467.341C284.796 466.695 284.899 465.931 284.899 465.049C284.899 464.138 284.796 463.374 284.59 462.757C284.385 462.14 284.076 461.67 283.665 461.346C283.253 461.009 282.71 460.84 282.034 460.84C281.049 460.84 280.337 461.207 279.896 461.942C279.455 462.676 279.235 463.712 279.235 465.049ZM299.471 462.14C299.471 462.86 299.273 463.433 298.876 463.859C298.479 464.27 297.936 464.55 297.245 464.697V464.785C297.98 464.888 298.59 465.159 299.074 465.6C299.574 466.026 299.824 466.658 299.824 467.496C299.824 468.01 299.736 468.48 299.559 468.906C299.398 469.332 299.126 469.707 298.744 470.03C298.376 470.339 297.892 470.581 297.289 470.758C296.687 470.919 295.959 471 295.107 471H290.082V459.12H295.107C295.959 459.12 296.716 459.216 297.377 459.407C298.039 459.598 298.553 459.914 298.92 460.355C299.287 460.795 299.471 461.391 299.471 462.14ZM297.377 467.452C297.377 466.834 297.164 466.394 296.738 466.129C296.327 465.85 295.71 465.71 294.887 465.71H292.462V469.237H294.909C295.702 469.237 296.312 469.105 296.738 468.84C297.164 468.561 297.377 468.098 297.377 467.452ZM297.069 462.404C297.069 461.89 296.9 461.515 296.562 461.28C296.239 461.045 295.717 460.928 294.997 460.928H292.462V463.925H294.666C295.46 463.925 296.055 463.808 296.452 463.573C296.863 463.323 297.069 462.933 297.069 462.404ZM318.24 459.12V469.149H320.003V475.144H317.733V471H302.394V459.12H304.774V469.127H309.138V459.12H311.496V469.127H315.86V459.12H318.24ZM324.249 465.6C324.249 465.777 324.242 466.004 324.227 466.283C324.213 466.563 324.198 466.856 324.183 467.165C324.169 467.459 324.154 467.738 324.139 468.003C324.125 468.252 324.11 468.451 324.095 468.598L329.671 459.12H332.492V471H330.266V464.675C330.266 464.395 330.274 464.05 330.288 463.639C330.303 463.227 330.318 462.831 330.332 462.448C330.347 462.052 330.362 461.751 330.377 461.545L324.844 471H322.001V459.12H324.249V465.6ZM342.805 459.12H345.428L340.821 464.829L345.824 471H343.069L338.243 464.983V471H335.862V459.12H338.243V464.895L342.805 459.12Z" fill="#C9BFB4"/>
<defs>
<filter id="filter0_n_170_9" x="19" y="22" width="427" height="491" filterUnits="userSpaceOnUse" color-interpolation-filters="sRGB">
<feFlood flood-opacity="0" result="BackgroundImageFix"/>
<feBlend mode="normal" in="SourceGraphic" in2="BackgroundImageFix" result="shape"/>
<feTurbulence type="fractalNoise" baseFrequency="1.0145409107208252 1.0145409107208252" stitchTiles="stitch" numOctaves="3" result="noise" seed="8718" />
<feColorMatrix in="noise" type="luminanceToAlpha" result="alphaNoise" />
<feComponentTransfer in="alphaNoise" result="coloredNoise1">
<feFuncA type="discrete" tableValues="1 1 1 1 1 1 1 1 1 1 1 1 1 1 1 1 1 1 1 1 1 1 1 1 1 1 1 1 1 1 1 1 1 1 1 1 1 1 1 1 1 1 1 1 1 1 1 1 1 1 1 0 0 0 0 0 0 0 0 0 0 0 0 0 0 0 0 0 0 0 0 0 0 0 0 0 0 0 0 0 0 0 0 0 0 0 0 0 0 0 0 0 0 0 0 0 0 0 0 0 "/>
</feComponentTransfer>
<feComposite operator="in" in2="shape" in="coloredNoise1" result="noise1Clipped" />
<feFlood flood-color="#000000" result="color1Flood" />
<feComposite operator="in" in2="noise1Clipped" in="color1Flood" result="color1" />
<feMerge result="effect1_noise_170_9">
<feMergeNode in="shape" />
<feMergeNode in="color1" />
</feMerge>
</filter>
</defs>
</svg>
