<svg width="1014" height="675" viewBox="0 0 1014 675" fill="none" xmlns="http://www.w3.org/2000/svg">
<path d="M202.125 293.225L176.17 289.12L185.64 301.436L170.909 293.225L156.178 295.278L133.381 286.554L108.128 289.12L106.374 297.33L97.6056 289.12L87.0836 286.041L73.7557 292.712L66.3903 285.015L61.48 286.041L66.3903 292.712L58.3233 287.581L49.555 288.371L37.63 292.712L26.4065 291.173L27.108 286.041L20.0933 241.398L24.3021 200.86L20.7947 194.189L25.0036 179.821L23.2499 165.966L25.3543 145.954L22.1977 145.441L25.3543 133.125L24.3021 125.941L23.9513 111.317L25.3543 118.244L22.5484 104.389L25.3543 90.5344L26.4065 77.7059L23.2499 65.9036L25.3543 56.154V55.6408V48.4568L21.8469 55.1277L23.9513 43.8386L21.8469 32.5495L25.705 16.6421L40.0851 19.7209L47.8013 16.1289L51.6594 10.9975L70.9498 16.1289L76.9123 21.2603L90.591 15.1027L93.3968 19.7209L110.934 21.2603L97.2549 16.1289L118.65 10.9975L134.433 18.1815L139.343 21.7735L154.074 20.2341L162.842 16.1289L176.17 15.1027L183.185 6.8924L190.2 15.1027L203.878 16.1289L201.774 21.7735L216.855 16.1289L209.139 27.418L212.997 43.3254L210.192 48.4568L211.594 86.9424L209.49 112.6L212.997 125.428L207.736 131.586L211.594 155.19V165.453L216.855 171.611L211.594 182.387V193.163L207.736 218.82L216.855 249.095L210.192 280.91L202.125 293.225Z" fill="#969493" fill-opacity="0.5"/>
<path d="M389.186 289.119L363.231 285.014L372.701 297.329L357.97 289.119L343.239 291.171L320.442 282.448L295.189 285.014L293.435 293.224L284.667 285.014L274.145 281.935L260.817 288.606L253.451 280.909L248.541 281.935L253.451 288.606L245.384 283.474L236.616 284.265L224.691 288.606L213.468 287.066L214.169 281.935L207.154 237.292L211.363 196.753L207.856 190.083L212.065 175.715L210.311 161.86L212.415 141.847L209.259 141.334L212.415 129.019L211.363 121.835L211.012 107.21L212.415 114.138L209.609 100.283L212.415 86.428L213.468 73.5995L210.311 61.7972L212.415 52.0475V51.5344V44.3504L208.908 51.0212L211.012 39.7321L209.579 28.443L209.233 27.4167L216.854 16.1276L227.146 15.6145L234.862 12.0225L238.72 6.89108L258.011 12.0225L263.973 17.1539L277.652 10.9962L280.458 15.6145L297.995 17.1539L284.316 12.0225L305.711 6.89108L321.494 14.075L326.404 17.6671L341.135 16.1276L349.903 12.0225L363.231 10.9962L370.246 2.78595L377.261 10.9962L390.939 12.0225L388.835 17.6671L404.609 12.5356L400.058 32.5482V39.219L397.253 44.3504L398.656 82.836L396.551 108.493L400.058 121.322L394.797 127.479L398.656 151.084V161.347L403.917 167.504L398.656 178.28V189.056L394.797 214.713L403.917 244.989L397.253 276.803L389.186 289.119Z" fill="#969493" fill-opacity="0.5"/>
<path d="M581.097 289.119L555.143 285.014L564.613 297.329L549.882 289.119L535.151 291.171L512.353 282.448L487.1 285.014L485.347 293.224L476.578 285.014L466.056 281.935L452.728 288.606L445.363 280.909L440.453 281.935L445.363 288.606L437.296 283.474L428.528 284.265L416.603 288.606L405.379 287.066L406.081 281.935L399.066 237.292L403.275 196.753L399.767 190.083L403.976 175.715L402.223 161.86L404.327 141.847L401.17 141.334L404.327 129.019L403.275 121.835L402.924 107.21L404.327 114.138L401.521 100.283L404.327 86.428L405.379 73.5995L402.223 61.7972L404.327 52.0475V51.5344V44.3504L400.82 51.0212L402.924 39.7321L400.82 28.443L404.678 12.5356L419.058 15.6145L426.774 12.0225L430.632 6.89108L449.922 12.0225L455.885 17.1539L469.564 10.9962L472.369 15.6145L489.906 17.1539L476.228 12.0225L497.622 6.89108L513.405 14.075L518.316 17.6671L533.047 16.1276L541.815 12.0225L555.143 10.9962L562.158 2.78595L569.172 10.9962L582.851 12.0225L580.747 17.6671L594.789 12.0225L590.567 28.9561L591.97 39.219L589.164 44.3504L590.567 82.836L588.463 108.493L591.97 121.322L586.709 127.479L590.567 151.084V161.347L595.828 167.504L590.567 178.28V189.056L586.709 214.713L595.828 244.989L589.164 276.803L581.097 289.119Z" fill="#969493" fill-opacity="0.5"/>
<path d="M770.932 289.119L744.978 285.014L754.448 297.329L739.717 289.119L724.986 291.171L702.188 282.448L676.935 285.014L675.182 293.224L666.413 285.014L655.891 281.935L642.563 288.606L635.198 280.909L630.288 281.935L635.198 288.606L627.131 283.474L618.363 284.265L606.438 288.606L595.214 287.066L595.916 281.935L588.901 237.292L593.11 196.753L589.602 190.083L593.811 175.715L592.058 161.86L594.162 141.847L591.005 141.334L594.162 129.019L593.11 121.835L592.759 107.21L594.162 114.138L591.356 100.283L594.162 86.428L595.214 73.5995L592.058 61.7972L594.162 52.0475V51.5344V44.3504L590.655 51.0212L592.759 39.7321L590.655 28.443L594.513 12.5356L608.893 15.6145L616.609 12.0225L620.467 6.89108L639.758 12.0225L645.72 17.1539L659.399 10.9962L662.205 15.6145L679.741 17.1539L666.063 12.0225L687.457 6.89108L703.241 14.075L708.151 17.6671L722.882 16.1276L731.65 12.0225L744.978 10.9962L751.993 2.78595L759.007 10.9962L772.686 12.0225L770.582 17.6671L802.291 12.5356L798.48 28.443L781.805 39.219L778.999 44.3504L780.402 82.836L778.298 108.493L781.805 121.322L776.544 127.479L780.402 151.084V161.347L785.663 167.504L780.402 178.28V189.056L776.544 214.713L785.663 244.989L778.999 276.803L770.932 289.119Z" fill="#969493" fill-opacity="0.5"/>
<path d="M978.779 289.119L952.825 285.014L962.294 297.329L947.564 289.119L932.833 291.171L910.035 282.448L884.782 285.014L883.028 293.224L874.26 285.014L863.738 281.935L850.41 288.606L843.045 280.909L838.134 281.935L843.045 288.606L834.978 283.474L826.209 284.265L814.284 288.606L803.061 287.066L803.762 281.935L796.748 237.292L800.956 196.753L797.449 190.083L801.658 175.715L799.904 161.86L802.009 141.847L798.852 141.334L802.009 129.019L800.956 121.835L800.606 107.21L802.009 114.138L799.203 100.283L802.009 86.428L803.061 73.5995L799.904 61.7972L802.009 52.0475V51.5344V44.3504L798.501 51.0212L800.606 39.7321L798.501 28.443L802.359 12.5356L816.739 15.6145L824.456 12.0225L828.314 6.89108L847.604 12.0225L853.567 17.1539L867.245 10.9962L870.051 15.6145L887.588 17.1539L873.909 12.0225L895.304 6.89108L911.087 14.075L915.997 17.6671L930.728 16.1276L939.497 12.0225L952.825 10.9962L959.839 2.78595L966.854 10.9962L980.533 12.0225L978.428 17.6671L993.51 12.0225L985.794 23.3116L989.652 39.219L986.846 44.3504L988.249 82.836L986.144 108.493L989.652 121.322L984.391 127.479L988.249 151.084V161.347L993.51 167.504L988.249 178.28V189.056L984.391 214.713L993.51 244.989L986.846 276.803L978.779 289.119Z" fill="#969493" fill-opacity="0.5"/>
<path d="M957.137 530.295L952.825 540.558L962.295 552.873L947.564 544.663L932.833 546.715L910.036 537.992L884.783 540.558L883.029 548.768L874.261 540.558L863.739 537.479L850.411 544.15L843.045 536.453L838.135 537.479L843.045 544.15L834.978 539.018L826.21 539.809L814.285 544.15L803.061 542.61L803.763 537.479L796.748 492.836L800.957 452.297L797.45 445.626L801.659 431.259L799.905 417.404L802.009 397.391L798.853 396.878L802.009 384.563L800.957 377.379L800.606 362.754L802.009 369.682L799.203 355.827L802.009 341.972L803.061 329.143L799.905 317.341L802.009 307.591V307.078V299.894L798.502 306.565L800.606 295.276L798.502 283.987L802.36 268.08L816.74 271.158L824.456 267.566L828.314 262.435L847.605 267.566L853.567 272.698L867.246 266.54L870.052 271.158L887.589 272.698L873.91 267.566L895.305 262.435L911.088 269.619L915.998 273.211L930.729 271.672L939.497 267.566L952.825 266.54L959.84 258.33L966.855 266.54L976.19 267.566L976.882 273.724V292.197L986.928 276.803L989.652 294.763L986.846 299.894L988.249 338.38L986.145 364.037L989.652 376.866L984.391 383.023L978.429 389.694L966.855 465.639L957.137 530.295Z" fill="#969493" fill-opacity="0.5"/>
<path d="M978.779 666.79L952.825 662.685L962.294 675L947.564 666.79L932.833 668.842L910.035 660.119L884.782 662.685L883.028 670.895L874.26 662.685L863.738 659.606L850.41 666.277L843.045 658.579L838.134 659.606L843.045 666.277L834.978 661.145L826.209 661.936L814.284 666.277L803.061 664.737L803.762 659.606L796.748 614.962L800.956 574.424L797.449 567.753L801.658 553.385L799.904 539.531L802.009 519.518L798.852 519.005L802.009 506.69L800.956 499.506L800.606 484.881L802.009 491.809L799.203 477.954L802.009 464.099L803.061 451.27L799.904 439.468L802.009 429.718V429.205V422.021L798.501 428.692L800.606 417.403L798.501 406.114L802.359 390.207L816.739 393.285L824.456 389.693L828.314 384.562L847.604 389.693L853.567 394.825L867.245 388.667L870.051 393.285L887.588 394.825L873.909 389.693L895.304 384.562L911.087 391.746L915.997 395.338L930.728 393.799L939.497 389.693L952.825 388.667L959.839 380.457L966.854 388.667L980.533 389.693L978.428 395.338L993.51 389.693L985.794 400.982L989.652 416.89L986.846 422.021L988.249 460.507L986.144 486.164L989.652 498.993L984.391 505.15L988.249 528.755V539.018L993.51 545.175L988.249 555.951V566.727L984.391 592.384L993.51 622.66L986.846 654.474L978.779 666.79Z" fill="#969493" fill-opacity="0.5"/>
<path d="M790.332 666.79L764.377 662.685L773.847 675L759.116 666.79L744.385 668.842L721.588 660.119L696.335 662.685L694.581 670.895L685.813 662.685L675.291 659.606L661.963 666.277L654.597 658.579L649.687 659.606L654.597 666.277L646.53 661.145L637.762 661.936L625.837 666.277L614.614 664.737L615.315 659.606L608.3 614.962L612.509 574.424L609.002 567.753L613.211 553.385L611.457 539.531L613.561 519.518L610.405 519.005L613.561 506.69L612.509 499.506L612.158 484.881L613.561 491.809L610.755 477.954L613.561 464.099L614.614 451.27L611.457 439.468L613.561 429.718V429.205V422.021L610.054 428.692L612.158 417.403L610.054 406.114L613.912 390.207L628.292 393.285L636.008 389.693L639.866 384.562L659.157 389.693L665.119 394.825L678.798 388.667L681.604 393.285L699.141 394.825L685.462 389.693L706.857 384.562L722.64 391.746L727.55 395.338L742.281 393.799L751.049 389.693L764.377 388.667L771.392 380.457L778.407 388.667L792.085 389.693L789.981 395.338L805.062 389.693L797.346 400.982L801.204 416.89L798.399 422.021L799.801 460.507L797.697 486.164L801.204 498.993L795.943 505.15L799.801 528.755V539.018L805.062 545.175L799.801 555.951V566.727L795.943 592.384L805.062 622.66L798.399 654.474L790.332 666.79Z" fill="#969493" fill-opacity="0.5"/>
<path d="M600.498 666.79L574.543 662.685L584.013 675L569.282 666.79L554.551 668.842L531.754 660.119L506.501 662.685L504.747 670.895L495.979 662.685L485.457 659.606L472.129 666.277L464.763 658.579L459.853 659.606L464.763 666.277L456.696 661.145L447.928 661.936L436.003 666.277L424.78 664.737L425.481 659.606L418.466 614.962L422.675 574.424L419.168 567.753L423.377 553.385L421.623 539.531L423.727 519.518L420.571 519.005L423.727 506.69L422.675 499.506L422.324 484.881L423.727 491.809L420.921 477.954L423.727 464.099L424.78 451.27L421.623 439.468L423.727 429.718V429.205V422.021L420.22 428.692L422.324 417.403L420.22 406.114L424.078 390.207L438.458 393.285L446.174 389.693L450.032 384.562L469.323 389.693L475.285 394.825L488.964 388.667L491.77 393.285L509.307 394.825L495.628 389.693L517.023 384.562L532.806 391.746L537.716 395.338L552.447 393.799L561.215 389.693L574.543 388.667L581.558 380.457L588.573 388.667L602.251 389.693L600.147 395.338L615.229 389.693L607.512 400.982L611.37 416.89L608.565 422.021L609.967 460.507L607.863 486.164L611.37 498.993L606.109 505.15L609.967 528.755V539.018L615.229 545.175L609.967 555.951V566.727L606.109 592.384L615.229 622.66L608.565 654.474L600.498 666.79Z" fill="#969493" fill-opacity="0.5"/>
<path d="M414.129 666.79L388.174 662.685L397.644 675L382.913 666.79L368.182 668.842L345.384 660.119L320.132 662.685L318.378 670.895L309.61 662.685L299.088 659.606L285.76 666.277L278.394 658.579L273.484 659.606L278.394 666.277L270.327 661.145L261.559 661.936L249.634 666.277L238.41 664.737L239.112 659.606L232.097 614.962L236.306 574.424L232.799 567.753L237.007 553.385L235.254 539.531L237.358 519.518L234.202 519.005L237.358 506.69L236.306 499.506L235.955 484.881L237.358 491.809L234.552 477.954L237.358 464.099L238.41 451.27L235.254 439.468L237.358 429.718V429.205V422.021L233.851 428.692L235.955 417.403L233.851 406.114L237.709 390.207L252.089 393.285L259.805 389.693L263.663 384.562L282.954 389.693L288.916 394.825L302.595 388.667L305.401 393.285L322.937 394.825L309.259 389.693L330.654 384.562L346.437 391.746L351.347 395.338L366.078 393.799L374.846 389.693L388.174 388.667L395.189 380.457L402.204 388.667L415.882 389.693L413.778 395.338L428.859 389.693L421.143 400.982L425.001 416.89L422.195 422.021L423.598 460.507L421.494 486.164L425.001 498.993L419.74 505.15L423.598 528.755V539.018L428.859 545.175L423.598 555.951V566.727L419.74 592.384L428.859 622.66L422.195 654.474L414.129 666.79Z" fill="#969493" fill-opacity="0.5"/>
<path d="M227.757 666.79L201.803 662.685L211.273 675L196.542 666.79L181.811 668.842L159.013 660.119L133.761 662.685L132.007 670.895L123.238 662.685L112.716 659.606L99.3885 666.277L92.0231 658.579L87.1128 659.606L92.0231 666.277L83.9562 661.145L75.1878 661.936L63.2628 666.277L52.0393 664.737L52.7408 659.606L45.7261 614.962L49.9349 574.424L46.4276 567.753L50.6364 553.385L48.8827 539.531L50.9871 519.518L47.8305 519.005L50.9871 506.69L49.9349 499.506L49.5842 484.881L50.9871 491.809L48.1812 477.954L50.9871 464.099L52.0393 451.27L48.8827 439.468L50.9871 429.718V429.205V422.021L47.4798 428.692L49.5842 417.403L47.4798 406.114L51.3378 390.207L65.718 393.285L73.4341 389.693L77.2922 384.562L96.5826 389.693L102.545 394.825L116.224 388.667L119.03 393.285L136.566 394.825L122.888 389.693L144.283 384.562L160.066 391.746L164.976 395.338L179.707 393.799L188.475 389.693L201.803 388.667L208.818 380.457L215.832 388.667L229.511 389.693L227.407 395.338L242.488 389.693L234.772 400.982L238.63 416.89L235.824 422.021L237.227 460.507L235.123 486.164L238.63 498.993L233.369 505.15L237.227 528.755V539.018L242.488 545.175L237.227 555.951V566.727L233.369 592.384L242.488 622.66L235.824 654.474L227.757 666.79Z" fill="#969493" fill-opacity="0.5"/>
<path d="M98.0335 627.79L76.2095 617.014L47.4573 630.869L52.9999 659.605L51.2678 652.934L45.5425 664.736L50.4527 671.407L42.3858 666.276L33.6175 667.066L21.6925 671.407L10.469 669.868L11.1704 664.736L4.15576 620.093L8.36458 579.555L4.85724 572.884L9.06606 558.516L7.31238 544.661L9.41678 524.649L6.26016 524.136L9.41678 511.82L8.36458 504.636L8.01382 490.012L9.41678 496.939L6.6109 483.084L9.41678 469.23L10.469 456.401L7.31238 444.599L9.41678 434.849V434.336V427.152L5.90944 433.823L8.01382 422.534L5.90944 411.245L10.469 401.495L25.2869 405.087L31.8638 394.824L35.7219 389.693L55.0123 394.824L60.9748 399.955L74.6534 393.798L77.4593 398.416L94.9961 399.955L81.3174 394.824L102.712 389.693L118.495 396.877L123.406 400.469L138.136 398.929L146.905 394.824L160.233 393.798L167.247 385.587L174.262 393.798L187.941 394.824L185.836 400.469L200.918 394.824L193.202 406.113L197.06 422.021L194.254 427.152L195.657 465.638L193.553 491.295L197.06 504.123L191.799 510.281L195.657 533.885V544.148L200.918 550.306L195.657 561.082V571.858L191.799 597.515L200.918 627.79H98.0335Z" fill="#969493" fill-opacity="0.5"/>
<path d="M186.187 404.06L160.233 399.955L169.703 412.271L154.972 404.06L140.241 406.113L117.443 397.389L92.1902 399.955L90.4365 408.165L81.6681 399.955L71.1461 396.876L57.8182 403.547L50.4528 395.85L45.5425 396.876L50.4528 403.547L42.3858 398.416L33.6175 399.206L21.6925 403.547L10.469 402.008L11.1705 396.876L4.15576 352.233L8.36458 311.695L4.85724 305.024L9.06606 290.656L7.31238 276.801L9.41678 256.789L6.26018 256.276L9.41678 243.96L8.36458 236.776L8.01384 222.152L9.41678 229.079L6.6109 215.224L9.41678 201.369L10.469 188.541L7.31238 176.739L9.41678 166.989V166.476V159.292L5.90944 165.963L8.01384 154.674L5.90944 143.384L9.76752 127.477L24.1476 130.556L31.8638 126.964L35.7219 121.832L55.0123 126.964L60.9748 132.095L74.6535 125.938L77.4593 130.556L94.9961 132.095L81.3174 126.964L102.712 121.832L118.495 129.016L123.406 132.608L138.136 131.069L146.905 126.964L160.233 125.938L167.247 117.727L174.262 125.938L187.941 126.964L185.836 132.608L200.918 126.964L193.202 138.253L197.06 154.16L194.254 159.292L195.657 197.777L193.553 223.434L197.06 236.263L191.799 242.421L195.657 266.025V276.288L200.918 282.446L195.657 293.222V303.998L191.799 329.655L200.918 359.93L194.254 391.745L186.187 404.06Z" fill="#969493" fill-opacity="0.5"/>
<path d="M186.187 289.119L160.233 285.014L169.703 297.329L154.972 289.119L140.241 291.171L117.443 282.448L92.1902 285.014L90.4365 293.224L81.6681 285.014L71.1461 281.935L57.8182 288.606L50.4527 280.909L45.5424 281.935L50.4527 288.606L42.3858 283.474L33.6175 284.265L21.6925 288.606L24.2477 129.019L20.4371 130.045L10.0448 127.479L8.36456 121.835L8.01381 107.21L9.41676 114.138L6.61089 100.283L9.41676 86.428L10.469 73.5995L7.31236 61.7972L9.41676 52.0475V51.5344V44.3504L5.90942 51.0212L8.01381 39.7321L5.90942 28.443L9.7675 12.5356L25.6333 16.6407L22.1692 31.0087L57.8182 151.084L194.497 51.0212L194.254 44.3504L195.657 82.836L193.553 108.493L197.06 121.322L191.799 127.479L195.657 151.084V161.347L200.918 167.504L195.657 178.28V189.056L191.799 214.713L200.918 244.989L194.254 276.803L186.187 289.119Z" fill="#969493" fill-opacity="0.5"/>
<g filter="url(#filter0_n_2_579)">
<rect x="978.266" y="28.4414" width="621.927" height="958.176" transform="rotate(90 978.266 28.4414)" fill="#2F332E"/>
</g>
<defs>
<filter id="filter0_n_2_579" x="20.0898" y="28.4414" width="958.176" height="621.928" filterUnits="userSpaceOnUse" color-interpolation-filters="sRGB">
<feFlood flood-opacity="0" result="BackgroundImageFix"/>
<feBlend mode="normal" in="SourceGraphic" in2="BackgroundImageFix" result="shape"/>
<feTurbulence type="fractalNoise" baseFrequency="2.8629035949707031 2.8629035949707031" stitchTiles="stitch" numOctaves="3" result="noise" seed="8198" />
<feColorMatrix in="noise" type="luminanceToAlpha" result="alphaNoise" />
<feComponentTransfer in="alphaNoise" result="coloredNoise1">
<feFuncA type="discrete" tableValues="1 1 1 1 1 1 1 1 1 1 1 1 1 1 1 1 1 1 1 1 1 1 1 1 1 1 1 1 1 1 1 1 1 1 1 1 1 1 1 1 1 1 1 1 1 1 1 1 1 1 1 0 0 0 0 0 0 0 0 0 0 0 0 0 0 0 0 0 0 0 0 0 0 0 0 0 0 0 0 0 0 0 0 0 0 0 0 0 0 0 0 0 0 0 0 0 0 0 0 0 "/>
</feComponentTransfer>
<feComposite operator="in" in2="shape" in="coloredNoise1" result="noise1Clipped" />
<feFlood flood-color="#000000" result="color1Flood" />
<feComposite operator="in" in2="noise1Clipped" in="color1Flood" result="color1" />
<feMerge result="effect1_noise_2_579">
<feMergeNode in="shape" />
<feMergeNode in="color1" />
</feMerge>
</filter>
</defs>
</svg>
