<svg width="500" height="392" viewBox="0 0 500 392" fill="none" xmlns="http://www.w3.org/2000/svg">
<path d="M276.394 58.3975L277.913 96.331L283.988 102.82L285 130.271L276.394 149.737L282.469 162.715L283.988 176.69H276.394V222.11L283.988 236.086L276.394 237.583V244.571L285 274.019L276.394 268.03L263.739 276.016H243.996L223.748 279.01L210.586 276.016L182.238 277.014L178.188 272.522L152.877 271.025L139.716 277.014L118.961 274.019L113.393 268.03L77.9574 276.016L58.7211 277.014L48.5968 285L38.4725 277.014L41 274.019L22.7798 269.527L38.4725 263.5L43.5 257L47 242.5L73 224.5L57 218.5L62.5 214.5L54 210.818L83 189.5L64 163.5L69.5 140L74.4139 113.489L276.394 58.3975Z" fill="#4B4A4A"/>
<path d="M276.394 58.3975L277.913 96.331L283.988 102.82L285 130.271L276.394 149.737L282.469 162.715L283.988 176.69H276.394V222.11L283.988 236.086L276.394 237.583V244.571L285 274.019L276.394 268.03L263.739 276.016H243.996L223.748 279.01L210.586 276.016L182.238 277.014L178.188 272.522L152.877 271.025L139.716 277.014L118.961 274.019L113.393 268.03L77.9574 276.016L58.7211 277.014L48.5968 285L38.4725 277.014L41 274.019L22.7798 269.527L38.4725 263.5L43.5 257L47 242.5L73 224.5L57 218.5L62.5 214.5L54 210.818L83 189.5L64 163.5L69.5 140L74.4139 113.489L276.394 58.3975Z" fill="#4B4A4A"/>
<path d="M254 36L276.394 58.3975L273.863 13.4764L281.456 11.2101L289.414 6.48866L335.48 12.9772L371.927 10.4816L374.458 2.49562L398.25 6.48866L402.3 13.4764H432.167L419.512 10.4816L415.968 0L456.465 11.2101L473.677 6.98774L496.456 11.2101L488.863 13.4764L491.394 58.3975L492.913 96.331L498.988 102.82L500 130.271L491.394 149.737L497.469 162.715L498.988 176.69H491.394L473.677 194.5L478.739 276.016H458.996L438.748 279.01L425.586 276.016L397.238 277.014L393.188 272.522L367.877 271.025L354.716 277.014L333.961 274.019L328.393 268.03L292.957 276.016L273.721 277.014L263.597 285L253.472 277.014L235.755 274.019L237.78 269.527L215 276.016L226.137 265.035L228.162 249.562L220.568 231.594L218.544 218.616L219.556 207.137L223.606 216.62V212.128L222.593 195.158L228.162 163.713L222.593 140.753L215 124.781L222.593 114.299V103.818L219.556 85.8494L228.162 61.8914L254 36Z" fill="#4B4A4A"/>
<path d="M236.261 113.489H289.414L335.48 119.977L371.927 117.482L374.458 109.496L398.25 113.489L402.3 120.476H432.167L419.512 117.482L415.968 107L456.465 118.21L473.677 113.988V194.5L491.394 176.69L492.913 203.331L498.988 209.82L500 237.271L491.394 256.737L497.469 269.715L498.988 283.69H491.394V329.11L498.988 343.086L491.394 344.583V351.571L500 381.019L491.394 375.03L478.739 383.016H458.996L438.748 386.01L425.586 383.016L397.238 384.014L393.188 379.522L367.877 378.025L354.716 384.014L333.961 381.019L328.393 375.03L292.957 383.016L273.721 384.014L263.597 392L253.472 384.014L263.739 383.016L276.394 375.03V351.571L228.162 356.562L220.568 338.594L218.544 325.616L219.556 314.137L223.606 323.62V319.128L222.593 302.158L228.162 270.713L222.593 247.753L215 231.781L222.593 221.299V210.818L219.556 192.849L228.162 168.891L215 129.461L236.261 113.489Z" fill="#4B4A4A"/>
<path d="M7.59325 114.299V103.818L4.55595 85.8494L13.1616 61.8914L0 22.4606L21.2611 6.48866H74.4139L120.48 12.9772L156.927 10.4816L159.458 2.49562L183.25 6.48866L187.3 13.4764H217.167L204.512 10.4816L200.968 0L241.465 11.2101L258.677 6.98774L281.456 11.2101L273.863 13.4764L276.394 58.3975L74.4139 113.489L120.48 119.977L156.927 117.482L159.458 109.496L183.25 113.489L187.3 120.476H217.167L204.512 117.482L200.968 107L241.465 118.21L258.677 113.988L281.456 118.21L273.863 120.476L276.394 165.398L277.913 203.331L283.988 209.82L285 237.271L276.394 256.737L282.469 269.715L283.988 283.69H276.394V329.11L283.988 343.086L276.394 344.583V351.571V375.03L263.739 383.016L253.472 384.014L243.996 383.016L223.748 386.01L210.586 383.016L182.238 384.014L178.188 379.522L152.877 378.025L139.716 384.014L118.961 381.019L113.393 375.03L77.9574 383.016L58.7211 384.014L48.5968 392L38.4725 384.014L20.7549 381.019L22.7798 376.527L0 383.016L11.1368 372.035L13.1616 356.562L5.56838 338.594L3.54352 325.616L4.55595 314.137L8.60568 323.62V319.128L7.59325 302.158L13.1616 269.715L7.59325 247.753L0 231.781L7.59325 221.299V210.818L4.55595 192.849L13.1616 168.891L0 129.461L7.59325 114.299Z" fill="#4B4A4A"/>
<g filter="url(#filter0_n_230_9568)">
<rect x="21" y="23" width="460" height="343" fill="#2F332E"/>
</g>
<defs>
<filter id="filter0_n_230_9568" x="21" y="23" width="460" height="343" filterUnits="userSpaceOnUse" color-interpolation-filters="sRGB">
<feFlood flood-opacity="0" result="BackgroundImageFix"/>
<feBlend mode="normal" in="SourceGraphic" in2="BackgroundImageFix" result="shape"/>
<feTurbulence type="fractalNoise" baseFrequency="2 2" stitchTiles="stitch" numOctaves="3" result="noise" seed="6596" />
<feColorMatrix in="noise" type="luminanceToAlpha" result="alphaNoise" />
<feComponentTransfer in="alphaNoise" result="coloredNoise1">
<feFuncA type="discrete" tableValues="1 1 1 1 1 1 1 1 1 1 1 1 1 1 1 1 1 1 1 1 1 1 1 1 1 1 1 1 1 1 1 1 1 1 1 1 1 1 1 1 1 1 1 1 1 1 1 1 1 1 1 0 0 0 0 0 0 0 0 0 0 0 0 0 0 0 0 0 0 0 0 0 0 0 0 0 0 0 0 0 0 0 0 0 0 0 0 0 0 0 0 0 0 0 0 0 0 0 0 0 "/>
</feComponentTransfer>
<feComposite operator="in" in2="shape" in="coloredNoise1" result="noise1Clipped" />
<feFlood flood-color="#000000" result="color1Flood" />
<feComposite operator="in" in2="noise1Clipped" in="color1Flood" result="color1" />
<feMerge result="effect1_noise_230_9568">
<feMergeNode in="shape" />
<feMergeNode in="color1" />
</feMerge>
</filter>
</defs>
</svg>
