<svg width="128" height="45" viewBox="0 0 128 45" fill="none" xmlns="http://www.w3.org/2000/svg">
<g filter="url(#filter0_n_26_380)">
<rect width="128" height="45" fill="#2F332E"/>
</g>
<path d="M7.37799 30V16.8396H16.8889V30H14.8798V18.5538H9.42394V30H7.37799ZM27.6786 30H25.6511V21.6319H23.1075C22.9846 23.1556 22.8372 24.4643 22.6651 25.5579C22.4931 26.6392 22.2719 27.5178 22.0016 28.1937C21.7435 28.8695 21.4179 29.3672 21.0247 29.6867C20.6438 29.9939 20.1891 30.1475 19.6607 30.1475C19.4764 30.1475 19.2921 30.129 19.1078 30.0922C18.9234 30.0676 18.7637 30.0246 18.6285 29.9631V28.4701C18.7268 28.4947 18.8251 28.5193 18.9234 28.5439C19.0217 28.5562 19.12 28.5623 19.2183 28.5623C19.4395 28.5623 19.6423 28.464 19.8266 28.2674C20.0109 28.0708 20.1768 27.7636 20.3243 27.3458C20.484 26.928 20.6253 26.3873 20.7482 25.7238C20.8834 25.048 21.0001 24.2431 21.0984 23.3092C21.1967 22.3753 21.2827 21.294 21.3565 20.0652H27.6786V30ZM38.8168 25.0234C38.8168 25.8467 38.7124 26.5778 38.5035 27.2168C38.2946 27.8558 37.9935 28.3964 37.6003 28.8388C37.2194 29.2812 36.7524 29.6191 36.1995 29.8525C35.6465 30.0737 35.026 30.1843 34.3379 30.1843C33.7112 30.1843 33.1275 30.0737 32.5868 29.8525C32.0462 29.6191 31.5792 29.2812 31.186 28.8388C30.7928 28.3964 30.4856 27.8558 30.2644 27.2168C30.0555 26.5778 29.9511 25.8405 29.9511 25.0049C29.9511 23.9113 30.1292 22.9836 30.4856 22.2217C30.8419 21.4599 31.3519 20.8823 32.0154 20.4891C32.6913 20.0836 33.49 19.8809 34.4116 19.8809C35.2717 19.8809 36.0336 20.0836 36.6972 20.4891C37.3607 20.8823 37.8768 21.4599 38.2454 22.2217C38.6264 22.9836 38.8168 23.9175 38.8168 25.0234ZM32.0154 25.0234C32.0154 25.7607 32.0953 26.3996 32.2551 26.9403C32.4271 27.4687 32.6851 27.8742 33.0292 28.1568C33.3855 28.4394 33.8341 28.5807 34.3747 28.5807C34.9277 28.5807 35.3762 28.4394 35.7203 28.1568C36.0766 27.8742 36.3347 27.4687 36.4944 26.9403C36.6664 26.3996 36.7524 25.7607 36.7524 25.0234C36.7524 24.2615 36.6664 23.6226 36.4944 23.1065C36.3224 22.5904 36.0643 22.1971 35.7203 21.9268C35.3762 21.6442 34.9215 21.5029 34.3563 21.5029C33.533 21.5029 32.937 21.8101 32.5684 22.4245C32.1998 23.0389 32.0154 23.9052 32.0154 25.0234ZM44.9394 30.1843C44.0669 30.1843 43.2989 30.0061 42.6354 29.6498C41.9841 29.2934 41.4742 28.7405 41.1055 27.9909C40.7492 27.2291 40.571 26.2645 40.571 25.0971C40.571 23.8683 40.7676 22.873 41.1608 22.1111C41.5541 21.3493 42.0886 20.7902 42.7644 20.4338C43.4403 20.0652 44.2144 19.8809 45.0868 19.8809C45.6029 19.8809 46.0945 19.9423 46.5614 20.0652C47.0406 20.1758 47.4338 20.3048 47.741 20.4523L47.1328 22.019C46.8256 21.8961 46.4938 21.7855 46.1375 21.6872C45.7811 21.5889 45.4432 21.5397 45.1237 21.5397C44.5585 21.5397 44.0915 21.6749 43.7229 21.9452C43.3665 22.2033 43.0962 22.5965 42.9119 23.1249C42.7276 23.641 42.6354 24.2922 42.6354 25.0787C42.6354 25.8282 42.7276 26.4611 42.9119 26.9772C43.0962 27.4933 43.3665 27.8865 43.7229 28.1568C44.0915 28.4149 44.5339 28.5439 45.05 28.5439C45.5538 28.5439 46.0023 28.4824 46.3955 28.3596C46.801 28.2367 47.1758 28.0769 47.5199 27.8803V29.5761C47.1758 29.785 46.801 29.9386 46.3955 30.0369C45.99 30.1352 45.5046 30.1843 44.9394 30.1843ZM55.4791 20.0652H57.6725L53.8203 24.8391L58.0043 30H55.7003L51.6637 24.9681V30H49.6731V20.0652H51.6637V24.8944L55.4791 20.0652ZM67.5267 25.0234C67.5267 25.8467 67.4223 26.5778 67.2134 27.2168C67.0045 27.8558 66.7034 28.3964 66.3102 28.8388C65.9293 29.2812 65.4623 29.6191 64.9094 29.8525C64.3564 30.0737 63.7359 30.1843 63.0478 30.1843C62.4211 30.1843 61.8374 30.0737 61.2967 29.8525C60.7561 29.6191 60.2891 29.2812 59.8959 28.8388C59.5027 28.3964 59.1955 27.8558 58.9743 27.2168C58.7654 26.5778 58.661 25.8405 58.661 25.0049C58.661 23.9113 58.8391 22.9836 59.1955 22.2217C59.5518 21.4599 60.0618 20.8823 60.7253 20.4891C61.4012 20.0836 62.1999 19.8809 63.1215 19.8809C63.9816 19.8809 64.7435 20.0836 65.407 20.4891C66.0706 20.8823 66.5867 21.4599 66.9553 22.2217C67.3363 22.9836 67.5267 23.9175 67.5267 25.0234ZM60.7253 25.0234C60.7253 25.7607 60.8052 26.3996 60.9649 26.9403C61.137 27.4687 61.395 27.8742 61.7391 28.1568C62.0954 28.4394 62.5439 28.5807 63.0846 28.5807C63.6376 28.5807 64.0861 28.4394 64.4302 28.1568C64.7865 27.8742 65.0445 27.4687 65.2043 26.9403C65.3763 26.3996 65.4623 25.7607 65.4623 25.0234C65.4623 24.2615 65.3763 23.6226 65.2043 23.1065C65.0323 22.5904 64.7742 22.1971 64.4302 21.9268C64.0861 21.6442 63.6314 21.5029 63.0662 21.5029C62.2429 21.5029 61.6469 21.8101 61.2783 22.4245C60.9097 23.0389 60.7253 23.9052 60.7253 25.0234ZM75.8427 20.0652V21.6319H71.7877V30H69.797V20.0652H75.8427ZM76.2446 20.0652H78.3827L80.2812 25.7054C80.3795 25.988 80.4655 26.2645 80.5392 26.5348C80.6252 26.8051 80.6928 27.0755 80.742 27.3458C80.8034 27.6038 80.8526 27.8619 80.8894 28.1199H80.9447C81.0062 27.8005 81.0922 27.4257 81.2028 26.9956C81.3134 26.5532 81.4363 26.117 81.5714 25.6869L83.3777 20.0652H85.5343L81.553 31.3455C81.3195 31.9845 81.0369 32.5313 80.7051 32.986C80.3856 33.4529 79.9924 33.8093 79.5255 34.055C79.0708 34.3008 78.524 34.4237 77.885 34.4237C77.6147 34.4237 77.3689 34.4052 77.1478 34.3684C76.9389 34.3438 76.7545 34.3131 76.5948 34.2762V32.7279C76.7177 32.7525 76.8713 32.7771 77.0556 32.8017C77.2399 32.8262 77.4304 32.8385 77.627 32.8385C77.9833 32.8385 78.2905 32.7648 78.5486 32.6173C78.8066 32.4699 79.0217 32.261 79.1937 31.9906C79.3657 31.7326 79.507 31.4254 79.6176 31.0691L79.9863 30L76.2446 20.0652ZM86.4353 24.0465C86.4353 22.5842 86.5827 21.3431 86.8777 20.3232C87.1848 19.3033 87.6641 18.4923 88.3153 17.8902C88.9666 17.2758 89.8206 16.858 90.8774 16.6368C91.5655 16.4894 92.2536 16.3542 92.9418 16.2313C93.6299 16.1085 94.2873 15.9979 94.914 15.8996L95.1905 17.6137C94.8833 17.6506 94.5515 17.6998 94.1951 17.7612C93.8388 17.8226 93.4763 17.8841 93.1076 17.9455C92.739 18.007 92.3827 18.0684 92.0386 18.1298C91.7068 18.1913 91.4119 18.2527 91.1539 18.3142C90.7238 18.3879 90.349 18.5169 90.0295 18.7012C89.7223 18.8855 89.4643 19.1313 89.2554 19.4385C89.0465 19.7457 88.8806 20.1389 88.7577 20.6181C88.6348 21.0851 88.5611 21.6565 88.5365 22.3323H88.6471C88.7946 22.0988 89.0035 21.8592 89.2738 21.6135C89.5441 21.3677 89.8698 21.165 90.2507 21.0052C90.6439 20.8332 91.0863 20.7472 91.5778 20.7472C92.3519 20.7472 93.0155 20.9315 93.5684 21.3001C94.1214 21.6565 94.5392 22.1664 94.8218 22.83C95.1044 23.4812 95.2457 24.2615 95.2457 25.1708C95.2457 26.289 95.0553 27.2229 94.6744 27.9725C94.3057 28.7098 93.7896 29.2627 93.1261 29.6314C92.4748 30 91.7068 30.1843 90.8221 30.1843C90.1585 30.1843 89.5564 30.0553 89.0158 29.7972C88.4751 29.5269 88.0143 29.1337 87.6334 28.6176C87.2524 28.0892 86.9575 27.4441 86.7486 26.6823C86.5397 25.9204 86.4353 25.0418 86.4353 24.0465ZM90.9695 28.5807C91.4119 28.5807 91.7928 28.4763 92.1123 28.2674C92.4441 28.0585 92.7021 27.7206 92.8865 27.2536C93.0708 26.7867 93.1629 26.16 93.1629 25.3736C93.1629 24.4274 93.0093 23.6778 92.7021 23.1249C92.3949 22.5719 91.885 22.2955 91.1723 22.2955C90.7299 22.2955 90.3244 22.4122 89.9558 22.6457C89.5871 22.8668 89.2738 23.1187 89.0158 23.4014C88.77 23.684 88.5918 23.9236 88.4812 24.1202C88.4812 24.6977 88.5181 25.2507 88.5918 25.7791C88.6778 26.3075 88.813 26.7806 88.9973 27.1983C89.1816 27.6161 89.4274 27.9541 89.7346 28.2121C90.0541 28.4579 90.4657 28.5807 90.9695 28.5807ZM107.322 33.4836H105.461V30H97.5349V20.0652H99.5256V28.4333H103.857V20.0652H105.866V28.4517H107.322V33.4836ZM109.001 30V20.0652H110.992V24.0649H112.982C113.842 24.0649 114.549 24.1755 115.102 24.3967C115.655 24.6056 116.06 24.9189 116.318 25.3367C116.589 25.7545 116.724 26.2829 116.724 26.9219C116.724 27.5486 116.595 28.0954 116.337 28.5623C116.079 29.017 115.667 29.3733 115.102 29.6314C114.549 29.8771 113.812 30 112.89 30H109.001ZM112.743 28.5254C113.332 28.5254 113.805 28.4149 114.162 28.1937C114.53 27.9602 114.715 27.5608 114.715 26.9956C114.715 26.4549 114.549 26.0863 114.217 25.8897C113.898 25.6808 113.406 25.5763 112.743 25.5763H110.992V28.5254H112.743ZM118.162 30V20.0652H120.152V30H118.162Z" fill="#C9BFB4"/>
<defs>
<filter id="filter0_n_26_380" x="0" y="0" width="128" height="45" filterUnits="userSpaceOnUse" color-interpolation-filters="sRGB">
<feFlood flood-opacity="0" result="BackgroundImageFix"/>
<feBlend mode="normal" in="SourceGraphic" in2="BackgroundImageFix" result="shape"/>
<feTurbulence type="fractalNoise" baseFrequency="2.5 2.5" stitchTiles="stitch" numOctaves="3" result="noise" seed="8718" />
<feColorMatrix in="noise" type="luminanceToAlpha" result="alphaNoise" />
<feComponentTransfer in="alphaNoise" result="coloredNoise1">
<feFuncA type="discrete" tableValues="1 1 1 1 1 1 1 1 1 1 1 1 1 1 1 1 1 1 1 1 1 1 1 1 1 1 1 1 1 1 1 1 1 1 1 1 1 1 1 1 1 1 1 1 1 1 1 1 1 1 1 0 0 0 0 0 0 0 0 0 0 0 0 0 0 0 0 0 0 0 0 0 0 0 0 0 0 0 0 0 0 0 0 0 0 0 0 0 0 0 0 0 0 0 0 0 0 0 0 0 "/>
</feComponentTransfer>
<feComposite operator="in" in2="shape" in="coloredNoise1" result="noise1Clipped" />
<feFlood flood-color="#000000" result="color1Flood" />
<feComposite operator="in" in2="noise1Clipped" in="color1Flood" result="color1" />
<feMerge result="effect1_noise_26_380">
<feMergeNode in="shape" />
<feMergeNode in="color1" />
</feMerge>
</filter>
</defs>
</svg>
