<svg width="574" height="53" viewBox="0 0 574 53" fill="none" xmlns="http://www.w3.org/2000/svg">
<path d="M260.87 44.6986L269.5 36.0415L275.972 36.5225L278.609 30.9915L280.287 28.5868L279.088 18.7273L271.417 14.3988L265.904 18.7273V37.0034L269.5 37.4844L260.87 44.6986L261.349 41.5724H256.794L243.85 38.4463V22.5749V16.3226L248.404 10.7916L261.349 8.86783L260.151 2.61548L269.5 2.375L265.904 8.38688L261.349 13.1964L246.966 19.6892L247.925 26.663L251.521 34.3582L257.514 36.5225L263.027 28.5868L260.87 13.1964L265.904 8.38688L279.808 11.2726L281.725 17.5249L284.842 20.6511L286.999 28.5868L283.643 36.0415L277.65 40.6105L267.342 42.0534L264.465 51.1914L260.87 49.9891V44.6986Z" fill="#C9BFB4"/>
<path d="M200.94 1.89551L211.008 2.61693L206.933 8.86929L204.056 27.3859L205.734 40.131L206.933 35.8025L216.761 24.2597L222.515 10.5526L228.268 1.89551L237.857 1.89551L234.74 10.5526L236.179 29.5501L235.22 42.0548L237.857 47.1048L228.268 47.5858L231.384 43.2572L230.425 29.5501L228.268 26.1835L231.384 8.86929L231.749 12.7169L223.473 20.893L212.207 38.6882L207.892 47.5858L199.262 49.0286L200.94 35.8025L202.138 12.7169L200.94 1.89551Z" fill="#C9BFB4"/>
<path d="M106.49 22.0939L110.805 24.0177L114.881 26.4225L117.518 27.3844V39.8891L104.812 27.1439L95.7031 29.3082L94.0251 32.1939L94.9839 40.851L97.6209 43.4962L106.011 42.2938L112.963 35.3201H114.162L117.518 39.8891L109.127 45.1795L102.415 48.7867H94.9839L88.7512 50.47L89.9498 33.8772L88.7512 22.0939L89.9498 16.3225L86.5938 1.41309L92.1073 3.81784L116.319 3.81784L111.525 8.62734L105.292 6.94401L96.4223 9.34876L94.0251 23.0558L100.977 23.0558L106.49 22.0939Z" fill="#C9BFB4"/>
<path d="M126.149 2.85645L131.902 6.94452L143.888 5.2612L148.922 6.2231L152.278 5.74215L150.6 12.4754L144.367 9.58975L138.374 13.6778L131.422 11.0326L130.464 19.2087L132.381 25.4611L131.422 37.0039V40.1301L131.902 45.661L136.936 50.23H126.149L126.868 36.042L123.512 27.8658L126.149 20.4111V2.85645Z" fill="#C9BFB4"/>
<path d="M2.63692 2.35645L8.39019 6.46527L20.3762 4.7734L25.4103 5.74019L28.7664 5.25679L27.0883 12.0243L20.8556 9.12393L14.8626 13.2328L7.91075 10.5741L6.95187 18.7918L8.86963 25.0758L7.91075 36.6772L7.91075 39.8193L8.39019 45.3783L13.4243 49.9705H2.63692L3.35607 35.7105L0 27.4928L2.63692 20.0002L2.63692 2.35645Z" fill="#C9BFB4"/>
<path d="M162.584 8.38686L163.063 6.22259L161.385 3.33689L167.857 2.13451L178.405 5.02021L188.473 1.41309L190.151 6.22259L187.035 20.8916L186.076 33.1558L189.672 48.3057L179.604 47.8248L182.48 37.9653L180.802 28.8272L183.439 14.3987V9.82971L167.378 8.38686L167.857 26.663L162.584 41.5724L160.426 45.901L158.508 49.2676L152.515 51.9128L146.043 46.3819L149.399 39.4081L154.433 43.0153L157.31 41.5724L159.707 35.0796L162.104 21.3725L162.584 8.38686Z" fill="#C9BFB4"/>
<path d="M34.5423 25.5329L33.5109 30.8369L35.1611 36.7092L40.7303 44.8546L44.2369 46.5594L53.7253 49.022L61.976 43.718L69.8143 39.74L71.4644 32.3523L72.4076 25.1558L70.8328 20.3855L68.9626 15.1833L67.7516 13.9988L65.4193 11.925L65.6889 11.8941L67.0925 12.5175L73.9824 14.3566L74.971 14.7574L77.0337 22.5577V30.4581L74.971 38.0352L69.8143 43.1497L64.8638 49.4009L54.1378 53L45.4745 50.348L35.1611 45.6123L30.2106 35.1938L29.5918 27.0483L33.5109 18.9029L37.0175 14.3566L40.3178 12.2729L43.6181 15.8721L39.4927 18.5241L38.2551 21.7443L34.5423 25.5329Z" fill="#C9BFB4"/>
<path d="M56.3583 9.644L56.9197 8.5458L55.6836 8.25674L55.0039 7.56038L50.5959 8.06696L50.0486 7.78541L47.4241 8.86261L50.6179 5.99785L52.8203 5.74379L46.4976 5.26545L45.4029 4.70235L43.2064 4.26603L45.4168 3.3226L48.8554 3.35761L48.4483 2.80151L46.9326 3.06205L44.8764 2.35118L43.922 1.51353L41.5922 0.661872L44.35 0L47.1008 0.028003L56.9895 1.64705L59.593 2.63948L60.9544 4.03323L63.551 5.71554L70.3846 8.48317L74.971 14.7574L71.6202 22.7706L68.0145 13.2124L62.9268 13.0226L60.5761 14.2406L58.3726 14.4941L56.0428 13.6425L54.2533 13.7623L52.4569 14.5719L50.6745 14.0018L49.5797 13.4387L46.6886 13.6852L50.562 11.5168L52.4918 11.1225L56.3583 9.644Z" fill="#C9BFB4"/>
<path d="M327.195 24.2735L324.986 30.0111L327.815 34.8984L328.597 39.3724L333.387 42.642L336.895 44.2628L344.485 45.0167L352.718 45.705L356.473 45.0167L362.487 37.7798L364.138 30.7565L365.082 23.915L363.506 19.3799L361.635 14.4344L360.423 13.3082L358.089 11.3368L358.359 11.3074L359.764 11.9001L365.861 14.4344L369.71 21.445L367.646 28.9098V36.159L365.861 43.3647L357.534 46.9641L345.543 51.3493L336.276 50.3857L327.815 43.3624L322.242 33.8658V25.7141L323.253 18.9979L328.597 13.7792L335.864 10.9488L336.276 15.0891L332.149 17.6103L328.597 20.2369L327.195 24.2735Z" fill="#C9BFB4"/>
<path d="M349.024 9.1683L349.585 8.12427L348.348 7.84946L347.668 7.18745L343.258 7.66904L342.71 7.40138L340.084 8.42544L343.28 5.70199L345.484 5.46046L339.157 5.00573L338.062 4.4704L335.864 4.0556L338.076 3.15871L341.516 3.19199L341.109 2.66332L339.593 2.91101L337.535 2.2352L336.58 1.43887L334.249 0.629224L337.009 0L339.761 0.0266217L349.655 1.56581L352.26 2.50928L353.622 3.83429L356.22 5.43361L363.058 8.06472L365.861 14.4344L364.294 21.6474L360.686 12.5607L355.596 12.3802L353.244 13.5381L351.039 13.7792L348.708 12.9695L346.917 13.0834L345.12 13.8531L343.337 13.3111L342.241 12.7758L339.348 13.0102L343.224 10.9488L345.155 10.5739L349.024 9.1683Z" fill="#C9BFB4"/>
<path d="M548.301 13.3481L542.084 16.9038L536.695 18.8792L535.866 30.3365L537.109 33.8922L547.058 39.4233L553.69 39.8184L555.762 44.5594V46.9298L557.42 50.0905H548.301L549.13 46.5348L548.301 43.3741L544.571 44.5594L534.208 41.0036L530.892 35.8676L530.063 29.9414L529.648 19.6693L535.037 12.953L542.084 8.21202H548.301V1.10059L554.519 3.07598L554.311 8.80464L570.27 10.1874V18.8792L574 23.2251L572.342 35.0774L567.783 39.8184L555.762 44.5594L553.69 39.8184L560.322 37.0528L565.71 33.102L567.783 26.3857L564.052 13.3481L554.104 14.5333V20.4595V25.2005L553.69 39.8184L547.058 39.4233L549.13 31.9168V22.4349L548.301 13.3481Z" fill="#C9BFB4"/>
<path d="M487.235 4.40527L492.623 4.80035L494.696 16.6527L492.623 30.0855L493.867 40.3575L500.084 30.8756L507.131 22.974L514.177 15.4675L516.664 10.3315L519.98 4.80035H525.369L526.198 11.9118L524.54 21.3937L525.369 32.0609V41.9379V50.2345H517.079L519.98 39.5674L519.151 28.5051L519.98 22.1839L519.151 15.4675L515.006 24.9494L510.032 28.1101L504.229 34.0363L500.499 40.7526L495.525 45.8887L493.867 50.2345H488.064V38.7772L485.162 27.715L488.064 17.0478L487.235 4.40527Z" fill="#C9BFB4"/>
<path d="M288.244 19.4543L289.073 13.9232V5.23145L304.409 7.997L309.383 6.81176H319.746V13.133L313.943 11.9478L306.067 14.3183L294.876 11.9478L296.534 16.6888L294.876 26.5658L295.705 34.8624V45.5296L299.435 52.2459H287L288.244 45.5296L290.731 37.628L288.244 28.9362V26.9608V19.4543Z" fill="#C9BFB4"/>
<path d="M414.48 18.6281L415.309 13.097V4.40527L430.645 7.17083L435.619 5.98559H445.982V12.3069L440.179 11.1216L432.303 13.4921L421.112 11.1216L422.77 15.8626L421.112 25.7396L421.941 34.0363V44.7034L425.671 51.4198H413.236L414.48 44.7034L416.967 36.8018L414.48 28.1101V26.1347V18.6281Z" fill="#C9BFB4"/>
<path d="M386.512 6.38067H393.973L403.506 4.40527L406.408 7.56591L401.019 11.9118L385.683 11.1216H379.465L381.952 17.4429L379.465 24.5543L387.755 23.7642L397.703 25.7396L377.807 32.4559L381.952 43.9133L395.216 45.8887L403.092 43.9133L401.019 33.2461L395.216 30.8756L386.512 29.5175L397.703 25.7396L405.993 28.5051L407.651 36.0117L409.309 49.8394L393.973 53.0001L383.196 49.8394L374.077 51.8148L374.906 45.4936L373.662 37.9871L374.077 25.7396L375.735 19.8134L374.077 13.097V6.38067L378.222 4.40527L386.512 6.38067Z" fill="#C9BFB4"/>
<path d="M456.089 6.14129L466.451 4.95605L478.886 6.93145L481.788 6.14129V17.2035L480.13 23.1297L481.788 33.0067L480.959 41.3034L481.788 51.5755H474.327L475.985 46.0443L475.57 40.5132V33.7969L475.985 25.5002L473.912 10.8823L466.866 12.0675L457.747 10.8823L457.332 19.1789L456.918 26.2904L457.747 34.192L457.332 42.8837L453.187 48.4148L447.799 51.5755L442.41 50.3902V44.464L445.726 46.0443L449.457 44.464L451.115 36.1674L452.773 24.315L451.115 6.14129H456.089Z" fill="#C9BFB4"/>
</svg>
