<svg width="1560" height="144" viewBox="0 0 1560 144" fill="none" xmlns="http://www.w3.org/2000/svg">
<path d="M708.987 120.603L732.441 97.2452L750.032 98.5429L757.198 83.6198L761.759 77.1315L758.501 50.5295L737.653 38.8506L722.669 50.5295V99.8405L732.441 101.138L708.987 120.603L710.29 112.168H697.912L662.73 103.734V60.9108V44.0413L675.109 29.1182L710.29 23.9276L707.033 7.05801L732.441 6.40918L722.669 22.6299L710.29 35.6065L671.2 53.1249L673.806 71.9409L683.579 92.7034L699.866 98.5429L714.851 77.1315L708.987 35.6065L722.669 22.6299L760.456 30.4158L765.668 47.2854L774.137 55.7202L780.001 77.1315L770.88 97.2452L754.592 109.573L726.578 113.466L718.76 138.121L708.987 134.877V120.603Z" fill="#C9BFB4"/>
<path d="M546.111 5.11035L573.474 7.05684L562.399 23.9264L554.581 73.8862L559.141 108.274L562.399 96.5952L589.11 65.4514L604.746 28.4682L620.382 5.11035H646.443L637.973 28.4682L641.882 79.7257L639.276 113.465L646.443 127.09L620.382 128.388L628.852 116.709L626.246 79.7257L620.382 70.6421L628.852 23.9264L629.845 34.3077L607.352 56.3678L576.732 104.381L565.005 128.388L541.551 132.281L546.111 96.5952L549.369 34.3077L546.111 5.11035Z" fill="#C9BFB4"/>
<path d="M289.418 59.6118L301.145 64.8024L312.221 71.2907L319.387 73.886V107.625L284.858 73.2372L260.101 79.0767L255.54 86.8626L258.146 110.22L265.313 117.358L288.115 114.113L307.009 95.2974H310.266L319.387 107.625L296.585 121.899L278.343 131.632H258.146L241.207 136.174L244.465 91.4044L241.207 59.6118L244.465 44.0399L235.344 3.8125L250.328 10.3008H316.13L303.1 23.2774L286.161 18.7356L262.055 25.2239L255.54 62.2071H274.434L289.418 59.6118Z" fill="#C9BFB4"/>
<path d="M342.838 7.70703L358.474 18.7371L391.05 14.1953L404.731 16.7906L413.852 15.493L409.292 33.6602L392.353 25.8742L376.065 36.9043L357.171 29.7672L354.565 51.8274L359.777 68.6969L357.171 99.8407V108.276L358.474 123.199L372.156 135.526H342.838L344.793 97.2454L335.672 75.1852L342.838 55.0715V7.70703Z" fill="#C9BFB4"/>
<path d="M7.16652 6.35742L22.8026 17.4435L55.3776 12.8786L69.0592 15.4871L78.1802 14.1829L73.6197 32.4423L56.6806 24.6168L40.3931 35.7029L21.4996 28.5296L18.8935 50.7017L24.1056 67.6569L21.4996 98.9588V107.436L22.8026 122.435L36.4841 134.826H7.16652L9.12102 96.3503L0 74.1781L7.16652 53.9624V6.35742Z" fill="#C9BFB4"/>
<path d="M441.868 22.6285L443.171 16.7891L438.61 9.00313L456.201 5.75899L484.867 13.5449L512.23 3.8125L516.79 16.7891L508.321 56.3676L505.715 89.4579L515.487 130.334L488.124 129.036L495.942 102.434L491.382 77.779L498.548 38.8493V26.5215L454.898 22.6285L456.201 71.9395L441.868 112.167L436.004 123.846L430.792 132.929L414.505 140.067L396.914 125.144L406.035 106.327L419.717 116.06L427.535 112.167L434.05 94.6485L440.565 57.6653L441.868 22.6285Z" fill="#C9BFB4"/>
<path d="M93.88 68.8907L91.077 83.2015L95.5617 99.0456L110.698 121.023L120.228 125.623L146.015 132.267L168.439 117.956L189.741 107.223L194.226 87.2903L196.789 67.8732L192.509 55.0023L187.427 40.9664L184.135 37.7702L177.796 32.175L178.529 32.0915L182.344 33.7737L201.069 38.7358L203.756 39.8173L209.362 60.8632V82.1793L203.756 102.623L189.741 116.423L176.287 133.289L147.136 143L123.591 135.845L95.5617 123.067L82.1076 94.9568L80.4258 72.9795L91.077 51.0022L100.607 38.7358L109.577 33.1137L118.546 42.8246L107.334 49.98L103.971 58.6687L93.88 68.8907Z" fill="#C9BFB4"/>
<path d="M153.171 26.0206L154.697 23.0575L151.337 22.2776L149.49 20.3988L137.51 21.7656L136.023 21.0059L128.89 23.9123L137.57 16.1829L143.556 15.4974L126.372 14.2068L123.397 12.6875L117.427 11.5102L123.434 8.96476L132.78 9.0592L131.673 7.55878L127.554 8.26177L121.966 6.34374L119.372 4.08366L113.04 1.78581L120.535 0L128.011 0.0755554L154.886 4.44393L161.962 7.12162L165.662 10.8821L172.719 15.4212L191.291 22.8886L203.756 39.8173L194.649 61.4378L184.85 35.6485L171.023 35.1365L164.634 38.4227L158.645 39.1068L152.313 36.809L147.45 37.1321L142.568 39.3166L137.724 37.7784L134.748 36.2591L126.891 36.9243L137.418 31.0738L142.663 30.0098L153.171 26.0206Z" fill="#C9BFB4"/>
<path d="M889.241 65.7892L883.238 81.2701L890.924 94.4565L893.051 106.528L906.068 115.35L915.603 119.723L936.23 121.757L958.605 123.614L968.811 121.757L985.155 102.231L989.642 83.2811L992.207 64.8219L987.925 52.5859L982.839 39.2424L979.546 36.2039L973.204 30.8847L973.937 30.8053L977.754 32.4046L994.326 39.2424L1004.79 58.1577L999.178 78.2986V97.8577L994.326 117.299L971.693 127.011L939.105 138.843L913.921 136.243L890.924 117.293L875.779 91.6703V69.6763L878.527 51.5551L893.051 37.4746L912.801 29.8378L913.921 41.009L902.703 47.8114L893.051 54.8981L889.241 65.7892Z" fill="#C9BFB4"/>
<path d="M948.565 25.0339L950.091 22.217L946.73 21.4755L944.882 19.6894L932.895 20.9888L931.407 20.2666L924.27 23.0296L932.955 15.6814L938.944 15.0298L921.751 13.8028L918.774 12.3585L912.801 11.2393L918.812 8.8194L928.162 8.90919L927.055 7.48278L922.934 8.15109L917.342 6.32768L914.747 4.17909L908.412 1.99459L915.911 0.296875L923.391 0.368703L950.281 4.52159L957.361 7.06718L961.063 10.6422L968.123 14.9573L986.706 22.0563L994.326 39.2424L990.066 58.7039L980.261 34.1869L966.426 33.7001L960.034 36.8242L954.042 37.4746L947.707 35.2901L942.841 35.5973L937.956 37.674L933.109 36.2117L930.132 34.7673L922.27 35.3997L932.803 29.8378L938.051 28.8263L948.565 25.0339Z" fill="#C9BFB4"/>
<path d="M1490.16 36.3125L1473.26 45.9062L1458.61 51.2361L1456.36 82.1491L1459.74 91.7428L1486.78 106.666L1504.8 107.732L1510.43 120.524V126.92L1514.94 135.447H1490.16L1492.41 125.854L1490.16 117.326L1480.02 120.524L1451.85 110.93L1442.84 97.0726L1440.59 81.0831L1439.46 53.368L1454.11 35.2466L1473.26 22.455H1490.16V3.26758L1507.05 8.59741L1506.49 24.0539L1549.86 27.7848V51.2361L1560 62.9617L1555.49 94.9407L1543.1 107.732L1510.43 120.524L1504.8 107.732L1522.83 100.271L1537.47 89.6109L1543.1 71.4894L1532.96 36.3125L1505.93 39.5104V55.4999V68.2915L1504.8 107.732L1486.78 106.666L1492.41 86.413V60.8298L1490.16 36.3125Z" fill="#C9BFB4"/>
<path d="M1324.19 12.1826L1338.84 13.2486L1344.47 45.2276L1338.84 81.4704L1342.22 109.186L1359.12 83.6024L1378.27 62.283L1397.42 42.0297L1404.18 28.1721L1413.19 13.2486H1427.83L1430.09 32.436L1425.58 58.0192L1427.83 86.8003V113.449V135.835H1405.3L1413.19 107.054L1410.94 77.2066L1413.19 60.1511L1410.94 42.0297L1399.67 67.6129L1386.15 76.1406L1370.38 92.1301L1360.24 110.252L1346.72 124.109L1342.22 135.835H1326.45V104.922L1318.56 75.0746L1326.45 46.2935L1324.19 12.1826Z" fill="#C9BFB4"/>
<path d="M783.38 52.7859L785.633 37.8624V14.4111L827.314 21.8729L840.832 18.675H868.995V35.7305L853.224 32.5326L831.82 38.9284L801.404 32.5326L805.91 45.3242L801.404 71.9733L803.657 94.3586V123.14L813.796 141.261H780L783.38 123.14L790.139 101.82L783.38 78.3691V73.0393V52.7859Z" fill="#C9BFB4"/>
<path d="M1126.46 50.5574L1128.71 35.6339V12.1826L1170.39 19.6444L1183.91 16.4465H1212.07V33.502L1196.3 30.3041L1174.9 36.6999L1144.48 30.3041L1148.99 43.0957L1144.48 69.7448L1146.74 92.1301V120.911L1156.87 139.033H1123.08L1126.46 120.911L1133.22 99.5919L1126.46 76.1406V70.8108V50.5574Z" fill="#C9BFB4"/>
<path d="M1050.45 17.5125H1070.72L1096.63 12.1826L1104.52 20.7104L1089.87 32.436L1048.19 30.304H1031.29L1038.05 47.3595L1031.29 66.5469L1053.83 64.415L1080.86 69.7448L1026.79 87.8662L1038.05 118.779L1074.1 124.109L1095.51 118.779L1089.87 89.9982L1074.1 83.6024L1050.45 79.9381L1080.86 69.7448L1103.39 77.2066L1107.9 97.4599L1112.4 134.769L1070.72 143.297L1041.43 134.769L1016.65 140.099L1018.9 123.043L1015.52 102.79L1016.65 69.7448L1021.16 53.7553L1016.65 35.6339V17.5125L1027.92 12.1826L1050.45 17.5125Z" fill="#C9BFB4"/>
<path d="M1239.54 16.8668L1267.71 13.6689L1301.5 18.9988L1309.39 16.8668V46.7139L1304.88 62.7034L1309.39 89.3526L1307.14 111.738L1309.39 139.453H1289.11L1293.62 124.529L1292.49 109.606V91.4845L1293.62 69.0992L1287.98 29.6584L1268.83 32.8563L1244.05 29.6584L1242.92 52.0437L1241.8 71.2311L1244.05 92.5505L1242.92 116.002L1231.66 130.925L1217.01 139.453L1202.37 136.255V120.266L1211.38 124.529L1221.52 120.266L1226.03 97.8803L1230.53 65.9013L1226.03 16.8668H1239.54Z" fill="#C9BFB4"/>
</svg>
